<?xml version="1.0" encoding="utf-8"?>
<!-- Generator: Adobe Illustrator 15.1.0, SVG Export Plug-In . SVG Version: 6.00 Build 0)  -->
<!DOCTYPE svg PUBLIC "-//W3C//DTD SVG 1.1//EN" "http://www.w3.org/Graphics/SVG/1.1/DTD/svg11.dtd">
<svg version="1.1" id="レイヤー_1" xmlns="http://www.w3.org/2000/svg" xmlns:xlink="http://www.w3.org/1999/xlink" x="0px"
	 y="0px" width="100px" height="24px" viewBox="0 0 100 24" enable-background="new 0 0 100 24" xml:space="preserve">
<g>
	<g>
		<g>
			<path d="M40.354,9.499c-0.265,0.348-0.479,0.612-0.792,0.973l0.156,0.119c0.084,0.061,0.145,0.133,0.145,0.191
				c0,0.049-0.037,0.097-0.24,0.276c-0.049,1.163-0.049,3.214-0.049,5.361c0,0.264,0,0.684-0.6,0.684
				c-0.371,0-0.371-0.252-0.371-0.42c0-0.132,0.18-2.974,0.18-3.154c0.012-0.312,0.023-1.858,0.036-2.206
				c-1.007,1.055-1.812,1.475-2.555,1.774v-0.06c1.199-1.068,2.507-2.615,3.274-3.959c0.107-0.191,0.132-0.251,0.3-0.755
				l0.972,0.792c0.06,0.047,0.096,0.119,0.096,0.18C40.906,9.392,40.799,9.439,40.354,9.499z M39.982,7.209
				c-1.092,1.14-1.919,1.728-3.479,2.339L36.48,9.476c0.84-0.611,2.039-1.751,2.711-2.758c0.156-0.24,0.239-0.504,0.299-0.721
				l0.936,0.852c0.061,0.049,0.084,0.108,0.084,0.18C40.51,7.149,40.366,7.196,39.982,7.209z M47.143,10.472h-2.279
				c-0.012,0.191-0.012,0.395-0.012,0.719c0.012,0.66,0.061,3.898,0.061,4.63c0,1.14-1.164,1.247-1.332,1.247
				c-0.023-0.24-0.06-0.636-1.162-1.211v-0.049c0.287,0.013,0.755,0.024,1.055,0.024c0.6,0,0.6,0,0.6-0.684
				c0-0.755-0.036-4.45-0.048-4.677h-1.858c-0.084,0-0.852,0-1.404,0.107l-0.239-0.468c0.3,0.024,1.02,0.071,1.847,0.071h3.19
				l0.528-0.623c0.071-0.084,0.131-0.156,0.191-0.156c0.072,0,0.168,0.084,0.228,0.133l0.696,0.623
				c0.06,0.048,0.119,0.107,0.119,0.191C47.322,10.472,47.203,10.472,47.143,10.472z M46.436,7.46h-3.623
				c-0.312,0-0.887,0.013-1.414,0.109l-0.24-0.48c0.827,0.072,1.691,0.084,1.847,0.084h1.967l0.444-0.552
				c0.072-0.084,0.144-0.168,0.203-0.168c0.072,0,0.156,0.084,0.217,0.132l0.671,0.564c0.06,0.06,0.12,0.107,0.12,0.18
				C46.627,7.448,46.52,7.46,46.436,7.46z"/>
			<path d="M56.732,14.489c-0.12,0-0.18-0.037-0.684-0.408c-0.54-0.384-2.243-0.779-3.358-0.779c-0.468,0-1.667,0.096-1.667,1.234
				c0,1.248,1.751,1.355,2.555,1.355c0.228,0,1.211-0.084,1.415-0.084c0.312,0,0.768,0.133,0.768,0.48
				c0,0.443-0.468,0.443-1.128,0.443c-0.911,0-4.125,0-4.125-2.063c0-1.619,1.654-1.739,2.578-1.739c0.912,0,1.823,0.108,2.711,0.3
				c0.035,0.012,0.06,0.012,0.084,0.012c0.06,0,0.107,0,0.107-0.072c0-0.071-0.048-0.155-0.119-0.264
				c-0.037-0.06-0.373-0.551-1.236-1.787c-1.247,0.42-2.375,0.553-2.734,0.553c-0.695,0-1.283-0.432-1.499-0.96
				c0.432,0.192,0.815,0.36,1.439,0.36c0.491,0,1.476-0.133,2.435-0.504c-0.432-0.732-0.648-1.212-0.756-1.439
				c-0.216,0.072-1.151,0.348-1.631,0.348c-0.42,0-1.092-0.264-1.344-0.815c0.408,0.168,0.612,0.252,1.092,0.252
				c0.576,0,1.151-0.144,1.643-0.324c-0.084-0.18-0.407-1.007-0.491-1.163c-0.228-0.408-0.755-0.492-1.247-0.456
				c0.132-0.264,0.3-0.587,0.995-0.587c0.252,0,1.008,0.096,1.067,0.504c0.012,0.119,0.049,0.707,0.072,0.814
				c0.048,0.252,0.107,0.469,0.168,0.648c0.156-0.061,0.479-0.229,0.779-0.432c0.432-0.289,0.48-0.324,0.684-0.324
				c0.264,0,0.492,0.156,0.492,0.336c0,0.132-0.061,0.24-0.301,0.371c-0.551,0.313-0.936,0.48-1.427,0.648
				c0.276,0.635,0.491,1.02,0.731,1.402c0.252-0.119,0.576-0.275,1.056-0.575c0.36-0.216,0.407-0.252,0.612-0.252
				c0.311,0,0.551,0.168,0.551,0.349c0,0.167-0.18,0.287-0.336,0.371c-0.144,0.072-0.743,0.384-1.498,0.672
				c0.491,0.695,1.043,1.344,1.606,1.967c0.372,0.408,0.384,0.539,0.384,0.719C57.176,13.865,57.044,14.489,56.732,14.489z"/>
			<path d="M66.561,9.032c-0.959,0.432-1.883,0.695-1.979,0.719c-0.707,1.932-1.402,3.875-2.267,5.745
				c-0.276,0.588-0.372,0.708-0.624,0.708c-0.264,0-0.396-0.336-0.396-0.564c0-0.215,0.013-0.228,0.479-0.982
				c0.9-1.451,1.836-3.959,2.051-4.57c0.037-0.096,0.049-0.119,0.061-0.168c-0.504,0.108-1.031,0.192-1.523,0.192
				c-0.623,0-1.079-0.396-1.211-0.804c0.252,0.084,0.588,0.191,1.151,0.191c0.731,0,1.415-0.168,1.812-0.275
				c0.348-1.163,0.383-1.439,0.383-1.667c0-0.491-0.647-0.72-0.743-0.755c0.12-0.097,0.216-0.181,0.527-0.181
				c0.72,0,1.26,0.588,1.26,0.948c0,0.131-0.048,0.203-0.228,0.479c-0.133,0.205-0.217,0.373-0.444,0.936
				c0.36-0.144,0.624-0.264,0.888-0.432c0.384-0.252,0.468-0.299,0.695-0.299c0.313,0,0.492,0.215,0.492,0.395
				C66.945,8.756,66.909,8.876,66.561,9.032z M68.936,16.252c-1.379,0-3.55-0.155-3.55-1.751c0-0.096,0-0.54,0.276-0.924
				c0.023,1.487,0.863,1.823,2.506,1.823c0.564,0,0.828-0.036,1.188-0.097c0.359-0.059,0.408-0.059,0.492-0.059
				c0.383,0,0.635,0.348,0.635,0.575C70.482,16.252,69.355,16.252,68.936,16.252z M70.23,11.095c-0.096,0-0.527-0.048-0.611-0.048
				c-0.527,0-1.463,0.384-1.799,0.6l-0.06-0.06c0.108-0.096,0.587-0.48,0.684-0.553c0.359-0.311,0.396-0.336,0.396-0.455
				c0-0.348-1.176-0.359-1.331-0.359c-0.288,0-0.491,0.012-0.672,0.023c0.575-0.443,1.271-0.516,1.739-0.516
				c1.331,0,1.99,0.647,1.99,1.055C70.566,10.915,70.507,11.095,70.23,11.095z"/>
			<path d="M76.318,14.213c-0.012,0.06-0.023,0.097-0.023,0.155c0,0.097,0.096,0.553,0.096,0.648c0,0.313-0.192,0.408-0.372,0.408
				c-0.42,0-2.123-0.6-2.327-4.018C73.62,10.22,73.572,9.464,73.5,9.2c-0.107-0.432-0.3-0.756-0.42-0.984
				c0.611,0.037,1.512,0.564,1.512,1.344c0,0.084,0,0.156-0.049,0.396c-0.071,0.443-0.155,1.031-0.155,1.666
				c0,1.476,0.72,2.352,1.043,2.352c0.132,0,0.252-0.156,0.288-0.217c0.539-0.803,1.428-2.074,1.943-2.891l0.096,0.037
				C77.59,11.263,76.342,14.081,76.318,14.213z M82.256,13.47c-0.145,0-0.192-0.049-0.66-0.492c-0.324-0.3-0.972-0.42-1.271-0.479
				v-0.072c0.168-0.024,0.983-0.096,1.067-0.12c0.155-0.035,0.264-0.131,0.264-0.312c0-0.372-0.624-2.135-2.11-2.878
				c0.084-0.012,0.107-0.024,0.203-0.024c1.344,0,2.927,2.206,2.927,3.599C82.675,13.109,82.447,13.47,82.256,13.47z"/>
		</g>
	</g>
	<path d="M27.29,5.886c-1.116-1.117-2.579-1.68-4.046-1.69c-1.466,0.011-2.953,0.551-4.047,1.69
		c-2.387,2.489-2.607,5.786,0.017,9.274c1.938,2.576,3.051,3.903,3.864,4.432c0.055,0.036,0.11,0.062,0.166,0.072
		c0.055-0.011,0.112-0.036,0.166-0.072c0.814-0.528,1.809-1.948,3.864-4.432C29.391,12.605,29.544,8.14,27.29,5.886z M23.244,12.474
		c-1.391,0-2.518-1.127-2.518-2.518s1.127-2.518,2.518-2.518s2.518,1.127,2.518,2.518S24.635,12.474,23.244,12.474z"/>
</g>
</svg>
