<?xml version="1.0" encoding="utf-8"?>
<!-- Generator: Adobe Illustrator 15.1.0, SVG Export Plug-In . SVG Version: 6.00 Build 0)  -->
<!DOCTYPE svg PUBLIC "-//W3C//DTD SVG 1.1//EN" "http://www.w3.org/Graphics/SVG/1.1/DTD/svg11.dtd">
<svg version="1.1" id="レイヤー_1" xmlns="http://www.w3.org/2000/svg" xmlns:xlink="http://www.w3.org/1999/xlink" x="0px"
	 y="0px" width="85px" height="25px" viewBox="0 0 85 25" enable-background="new 0 0 85 25" xml:space="preserve">
<g>
	<g>
		<path fill="#1D2087" d="M20.422,17.035l-0.352-2.57l0.352,0.047c0.224,0.761,0.579,1.343,1.066,1.746
			c0.486,0.404,1.076,0.605,1.77,0.605c0.656,0,1.207-0.188,1.652-0.566c0.445-0.377,0.668-0.832,0.668-1.363
			c0-0.766-0.706-1.611-2.117-2.539c-0.115-0.078-0.201-0.135-0.258-0.172c-0.021-0.016-0.058-0.039-0.109-0.07
			c-1.359-0.9-2.164-1.555-2.414-1.961c-0.156-0.244-0.272-0.489-0.348-0.734c-0.076-0.244-0.113-0.5-0.113-0.766
			c0-0.75,0.286-1.354,0.859-1.813c0.572-0.458,1.33-0.688,2.273-0.688c0.406,0,0.852,0.07,1.336,0.211s0.775,0.211,0.875,0.211
			c0.083,0,0.169-0.012,0.258-0.035c0.088-0.023,0.182-0.056,0.281-0.098l0.289,2.195l-0.336,0.016
			c-0.266-0.656-0.625-1.161-1.078-1.516c-0.453-0.354-0.961-0.531-1.523-0.531c-0.558,0-1.018,0.152-1.379,0.457
			c-0.362,0.305-0.543,0.691-0.543,1.16c0,0.725,0.755,1.576,2.266,2.555c0.025,0.016,0.041,0.026,0.047,0.031
			c0.052,0.031,0.127,0.078,0.227,0.141c0.958,0.615,1.635,1.133,2.031,1.555c0.234,0.25,0.416,0.535,0.547,0.855
			c0.13,0.32,0.195,0.645,0.195,0.973c0,0.933-0.319,1.662-0.957,2.188c-0.639,0.526-1.525,0.789-2.66,0.789
			c-0.339,0-0.745-0.069-1.219-0.207c-0.475-0.138-0.789-0.207-0.945-0.207c-0.12,0-0.232,0.01-0.336,0.027
			C20.622,16.979,20.521,17.004,20.422,17.035z"/>
		<path fill="#1D2087" d="M34.665,15.566c-0.464,0.6-0.931,1.041-1.402,1.324c-0.472,0.284-0.968,0.426-1.488,0.426
			c-0.859,0-1.57-0.332-2.133-0.996s-0.844-1.506-0.844-2.527c0-1.072,0.305-1.951,0.914-2.637c0.609-0.685,1.386-1.027,2.328-1.027
			c1.036,0,1.958,0.725,2.766,2.172c0.011,0.016,0.019,0.029,0.023,0.039v0.305h-4.867c-0.016,0.12-0.027,0.236-0.035,0.348
			c-0.008,0.112-0.012,0.226-0.012,0.34c0,0.928,0.23,1.676,0.691,2.246s1.062,0.855,1.801,0.855c0.354,0,0.703-0.086,1.047-0.258
			s0.695-0.438,1.055-0.797L34.665,15.566z M30.04,12.309h3.328c-0.067-0.541-0.25-0.971-0.547-1.289
			c-0.297-0.317-0.664-0.477-1.102-0.477c-0.427,0-0.788,0.154-1.082,0.461C30.344,11.312,30.145,11.746,30.04,12.309z"/>
		<path fill="#1D2087" d="M39.783,16.293c-0.313,0.334-0.629,0.582-0.949,0.746s-0.654,0.246-1.004,0.246
			c-0.474,0-0.845-0.124-1.113-0.371c-0.268-0.247-0.402-0.59-0.402-1.027c0-0.286,0.076-0.543,0.227-0.77
			c0.151-0.227,0.362-0.395,0.633-0.504c0.073-0.031,0.406-0.15,1-0.359c0.594-0.208,1.131-0.419,1.609-0.633v-1.219
			c0-0.635-0.091-1.079-0.273-1.332c-0.182-0.252-0.492-0.379-0.93-0.379c-0.302,0-0.536,0.078-0.703,0.234
			c-0.166,0.156-0.25,0.375-0.25,0.656c0,0.068,0,0.117,0,0.148s0.003,0.063,0.008,0.094l-1.18,0.484v-0.07
			c0-0.521,0.266-1,0.797-1.438s1.12-0.656,1.766-0.656c0.25,0,0.49,0.039,0.719,0.117c0.229,0.078,0.433,0.19,0.609,0.336
			c0.234,0.193,0.4,0.406,0.496,0.641c0.097,0.234,0.145,0.639,0.145,1.211v0.125v2.914c0,0.386,0.031,0.632,0.094,0.738
			c0.063,0.107,0.175,0.16,0.336,0.16c0.109,0,0.229-0.024,0.355-0.074c0.128-0.049,0.275-0.126,0.441-0.23l0.086,0.242
			c-0.359,0.339-0.668,0.586-0.926,0.742s-0.488,0.234-0.691,0.234c-0.255,0-0.461-0.089-0.617-0.266S39.814,16.611,39.783,16.293z
			 M39.783,13.988c-0.453,0.245-0.966,0.484-1.539,0.719c-0.166,0.068-0.275,0.115-0.328,0.141c-0.15,0.078-0.27,0.194-0.355,0.348
			c-0.086,0.154-0.129,0.327-0.129,0.52c0,0.266,0.086,0.487,0.258,0.664c0.172,0.178,0.386,0.266,0.641,0.266
			c0.203,0,0.426-0.059,0.668-0.176s0.504-0.293,0.785-0.527V13.988z"/>
		<path fill="#1D2087" d="M44.285,11.824c0-0.255-0.063-0.439-0.188-0.555c-0.125-0.114-0.398-0.227-0.82-0.336v-0.305l2.141-0.672
			h0.109v1.68l0.672-0.836c0.037-0.041,0.086-0.104,0.148-0.188c0.234-0.302,0.448-0.453,0.641-0.453
			c0.141,0,0.385,0.063,0.73,0.188c0.347,0.125,0.64,0.193,0.879,0.203l-0.43,1.031h-0.031c-0.177,0-0.427-0.071-0.75-0.215
			c-0.322-0.143-0.563-0.215-0.719-0.215c-0.114,0-0.219,0.03-0.313,0.09c-0.094,0.061-0.234,0.202-0.422,0.426l-0.406,0.477v3.602
			c0,0.391,0.073,0.655,0.219,0.793c0.146,0.139,0.409,0.21,0.789,0.215v0.336h-3.258v-0.336c0.386-0.01,0.65-0.083,0.793-0.219
			c0.144-0.135,0.215-0.398,0.215-0.789V11.824z"/>
		<path fill="#1D2087" d="M55.404,15.582c-0.479,0.6-0.94,1.033-1.383,1.301c-0.443,0.269-0.92,0.402-1.43,0.402
			c-0.87,0-1.592-0.313-2.164-0.941c-0.573-0.627-0.859-1.418-0.859-2.371c0-1.078,0.38-1.996,1.141-2.754
			c0.76-0.758,1.68-1.137,2.758-1.137c0.583,0,1.055,0.097,1.414,0.289c0.359,0.193,0.539,0.438,0.539,0.734
			c0,0.151-0.051,0.275-0.152,0.371c-0.102,0.097-0.238,0.145-0.41,0.145c-0.183,0-0.433-0.133-0.75-0.398
			c-0.053-0.041-0.094-0.075-0.125-0.102c-0.006-0.005-0.016-0.013-0.031-0.023c-0.381-0.322-0.711-0.484-0.992-0.484
			c-0.584,0-1.09,0.291-1.52,0.871c-0.43,0.581-0.645,1.299-0.645,2.152c0,0.85,0.219,1.549,0.656,2.098
			c0.438,0.55,0.981,0.824,1.633,0.824c0.333,0,0.666-0.094,1-0.281c0.333-0.188,0.692-0.486,1.078-0.898L55.404,15.582z"/>
		<path fill="#1D2087" d="M62.516,13.645c0.005-0.088,0.009-0.181,0.012-0.277c0.002-0.096,0.004-0.235,0.004-0.418
			c0-0.817-0.093-1.377-0.277-1.68c-0.186-0.302-0.504-0.453-0.957-0.453c-0.256,0-0.561,0.076-0.914,0.227
			c-0.354,0.151-0.792,0.391-1.313,0.719v3.984c0,0.396,0.068,0.66,0.207,0.793c0.138,0.133,0.399,0.205,0.785,0.215l0.016,0.336
			h-3.266l0.008-0.336c0.385-0.01,0.648-0.083,0.789-0.219c0.141-0.135,0.211-0.398,0.211-0.789V7.605
			c0-0.26-0.062-0.447-0.184-0.563c-0.123-0.114-0.397-0.227-0.824-0.336V6.402l2.133-0.75h0.125v5.695
			c0.677-0.422,1.25-0.728,1.719-0.918c0.469-0.189,0.883-0.285,1.242-0.285c0.641,0,1.094,0.195,1.359,0.586
			s0.398,1.076,0.398,2.055c0,0.214-0.002,0.379-0.004,0.496c-0.003,0.117-0.007,0.226-0.012,0.324l-0.063,1.273
			c0,0.037-0.003,0.086-0.008,0.148c-0.016,0.344-0.023,0.584-0.023,0.719c0,0.406,0.084,0.674,0.254,0.801
			c0.169,0.128,0.498,0.197,0.988,0.207l0.008,0.336h-3.633v-0.336h0.078c0.4,0,0.678-0.127,0.832-0.383
			c0.153-0.255,0.243-0.799,0.27-1.633L62.516,13.645z"/>
	</g>
</g>
</svg>
