<?xml version="1.0" encoding="utf-8"?>
<!-- Generator: Adobe Illustrator 15.1.0, SVG Export Plug-In . SVG Version: 6.00 Build 0)  -->
<!DOCTYPE svg PUBLIC "-//W3C//DTD SVG 1.1//EN" "http://www.w3.org/Graphics/SVG/1.1/DTD/svg11.dtd">
<svg version="1.1" id="レイヤー_1" xmlns="http://www.w3.org/2000/svg" xmlns:xlink="http://www.w3.org/1999/xlink" x="0px"
	 y="0px" width="228px" height="65px" viewBox="0 0 228 65" enable-background="new 0 0 228 65" xml:space="preserve">
<path d="M83.078,52.07c-0.917-2.027-2.03-1.818-2.515-0.551c-1.023,2.674-2.753,3.303-4.819,3.354
	c-4.872,0.115-6.545-3.871-12.56-10.393c-5.513-5.977-11.36-7.939-16.107-7.453c1.421-1.514,2.604-2.793,3.363-3.648
	c3.65-4.122,3.297-3.737,8.282-3.596c3.87,0.111,8.735-3.869,11.835-7.188c3.094-3.318,8.285-9.393,8.174-10.386
	c-0.107-0.998-0.994-1.44-1.549-0.886C76.63,11.874,66.243,20.937,65.581,21.6c-0.664,0.663-2.988-0.553-2.102-1.881
	c0.885-1.328,8.729-9.614,9.611-10.72c0.887-1.105,0.887-1.769,0.334-2.322c-0.553-0.551-1.217-0.553-2.324,0.333
	c-1.105,0.882-9.391,8.728-10.718,9.613c-1.329,0.888-2.543-1.438-1.88-2.101c0.663-0.665,9.724-11.052,10.275-11.605
	c0.553-0.554,0.113-1.438-0.885-1.546c-0.994-0.112-7.07,5.077-10.387,8.174c-3.318,3.099-7.299,7.964-7.189,11.833
	c0.144,4.987,0.524,4.629-3.594,8.282c-1.058,0.938-2.728,2.49-4.732,4.383c-2.144-2.034-3.937-3.709-5.053-4.704
	c-4.109-3.661-4.051-4.528-3.527-8.171c0.002-0.012,0.002-0.025,0.005-0.038c1.448-4.612,0.353-9.849-3.302-13.505
	C24.878,2.389,16.39,2.39,11.153,7.626c-5.234,5.236-5.234,13.724,0,18.959c3.656,3.657,8.893,4.751,13.504,3.305
	c0.014-0.004,0.027-0.004,0.038-0.007c3.644-0.524,4.512-0.582,8.171,3.529c0.747,0.84,1.897,2.078,3.279,3.545
	c-4.486-0.021-9.771,2.094-14.779,7.523c-6.014,6.521-7.686,10.508-12.559,10.393c-2.066-0.051-3.797-0.68-4.819-3.354
	c-0.483-1.268-1.598-1.477-2.516,0.551c-1.329,2.939,0.481,9.008,7.784,11.086c5.849,1.664,12.781-1.154,19.541-6.713
	c4.187,1.986,8.797,3.049,13.479,3.049c4.738,0,9.299-1.059,13.475-3.051c6.76,5.561,13.694,8.379,19.544,6.715
	C82.597,61.078,84.409,55.01,83.078,52.07z M42.276,56.492c-3.79,0-7.522-0.787-10.98-2.234c3.849-3.568,7.589-7.969,10.98-12.877
	c3.397,4.918,7.146,9.326,11.002,12.898C49.83,55.732,46.116,56.492,42.276,56.492z"/>
<g>
	<path d="M181.545,33.75c0.388,0,0.837-0.254,0.837-0.766c0-0.367-0.239-0.594-0.538-0.822c-1.794-1.41-2.929-2.723-3.801-4.12
		c-0.041-0.075-0.066-0.16-0.066-0.25c0-0.105,0.032-0.202,0.087-0.283c0.72-0.985,2.229-3.07,2.229-4.31
		c0-0.993-0.837-1.419-1.791-1.419h-0.345c-0.503,0-0.909-0.407-0.909-0.909v-2.438c0-1.105,0-1.276-0.269-1.645
		c-0.328-0.425-1.014-0.708-1.673-0.708c-0.476,0-1.014,0.114-1.463,0.426c-0.535,0.396-0.535,0.792-0.535,1.927v2.438
		c0,0.502-0.408,0.909-0.909,0.909h-2.644c-0.479,0-1.253,0-1.253,0.795c0,0.793,0.774,0.793,1.253,0.793h5.193
		c0.449,0,0.656,0.085,0.656,0.397c0,0.481-1.7,5.871-6.925,9.645c-0.299,0.199-0.598,0.428-0.598,0.824
		c0,0.453,0.36,0.793,0.807,0.793c0.39,0,1.862-0.879,3.633-2.17c0-0.002,0,0.001,0.002,0c0.082-0.057,0.183-0.09,0.292-0.09
		c0.287,0,0.521,0.235,0.521,0.522v6.984c0,1.08,0,2.328,1.939,2.328c0.449,0,0.984-0.113,1.403-0.426
		c0.538-0.367,0.538-0.768,0.538-1.902v-8.125c0-0.289,0.232-0.521,0.521-0.521c0.103,0,0.196,0.029,0.278,0.08
		C179.451,32.775,181.096,33.75,181.545,33.75z"/>
	<path d="M195.069,39.234h-4.018c-0.501,0-0.909-0.406-0.909-0.908V27.653c0-0.502,0.408-0.908,0.909-0.908h3.329
		c0.449,0,1.254,0,1.254-0.796c0-0.766-0.834-0.794-1.254-0.794h-3.329c-0.501,0-0.909-0.406-0.909-0.909v-5.7
		c0-1.191,0-1.361-0.269-1.729c-0.328-0.483-1.075-0.767-1.762-0.767c-0.388,0-1.073,0.114-1.522,0.455
		c-0.567,0.396-0.537,0.963-0.537,2.042v5.7c0,0.503-0.406,0.909-0.909,0.909h-3.271c-0.476,0-1.224,0.028-1.224,0.794
		c0,0.796,0.748,0.796,1.224,0.796h3.271c0.503,0,0.909,0.405,0.909,0.908v10.673c0,0.502-0.406,0.908-0.909,0.908h-5.062
		c-0.477,0-1.253,0-1.253,0.795s0.745,0.795,1.253,0.795h14.987c0.447,0,1.224,0,1.224-0.795S195.546,39.234,195.069,39.234z"/>
	<path d="M96.875,21.266c0.076-0.027,0.18-0.059,0.314-0.094c0.606-0.163,0.986-0.244,1.14-0.244c0.17,0,0.34,0.05,0.506,0.149
		c0.165,0.099,0.296,0.234,0.391,0.405c0.313,0.506,0.572,1.116,0.775,1.833c0.205,0.717,0.307,1.355,0.307,1.915
		c0,0.397-0.076,0.695-0.228,0.893c-0.151,0.199-0.384,0.299-0.698,0.299c-0.437,0-1.025-0.42-1.767-1.259
		c-0.39-0.442-0.706-0.78-0.954-1.015c-0.522-0.522-1.179-0.922-1.972-1.197s-1.659-0.413-2.601-0.413
		c-1.945,0-3.475,0.627-4.584,1.881c-1.112,1.254-1.667,2.972-1.667,5.155c0,2.805,0.708,5.1,2.122,6.887
		c1.414,1.785,3.209,2.68,5.383,2.68c0.874,0,1.695-0.137,2.465-0.406c0.769-0.271,1.404-0.645,1.908-1.123
		c0.189-0.182,0.422-0.441,0.697-0.785c0.438-0.551,0.807-0.824,1.111-0.824c0.266,0,0.477,0.127,0.635,0.385
		c0.156,0.258,0.234,0.602,0.234,1.035c0,0.875-0.131,1.564-0.393,2.07c-0.261,0.504-0.615,0.758-1.061,0.758
		c-0.037,0-0.083-0.006-0.135-0.014c-0.053-0.01-0.126-0.023-0.222-0.041c-0.911,0.469-1.83,0.816-2.755,1.041
		c-0.926,0.227-1.893,0.34-2.898,0.34c-1.481,0-2.883-0.23-4.202-0.691c-1.319-0.459-2.487-1.119-3.503-1.975
		c-1.139-0.992-2.011-2.186-2.613-3.578c-0.604-1.395-0.904-2.917-0.904-4.569c0-1.324,0.199-2.551,0.598-3.679
		c0.398-1.128,0.997-2.146,1.795-3.058c0.969-1.127,2.145-1.991,3.531-2.591c1.386-0.6,2.91-0.899,4.572-0.899
		c0.541,0,1.143,0.049,1.809,0.148C94.677,20.784,95.631,20.978,96.875,21.266z"/>
	<path d="M112.438,41.076c-1.146,0-2.243-0.158-3.294-0.477c-1.052-0.316-2.014-0.779-2.889-1.387
		c-1.373-0.943-2.416-2.137-3.134-3.58c-0.716-1.445-1.075-3.062-1.075-4.854c0-2.896,0.943-5.239,2.827-7.031
		c1.886-1.79,4.357-2.686,7.415-2.686c1.209,0,2.346,0.169,3.41,0.508c1.064,0.338,2.023,0.837,2.882,1.497
		c1.245,0.951,2.212,2.162,2.901,3.631c0.691,1.47,1.035,3.057,1.035,4.762c0,1.088-0.157,2.125-0.473,3.112
		c-0.316,0.984-0.776,1.881-1.38,2.686c-0.911,1.191-2.096,2.125-3.553,2.803C115.655,40.736,114.097,41.076,112.438,41.076z
		 M118.499,32.412c0-2.775-0.652-5.053-1.955-6.831c-1.304-1.779-2.943-2.667-4.919-2.667c-1.677,0-3.028,0.615-4.052,1.845
		s-1.535,2.868-1.535,4.916c0,2.803,0.635,5.086,1.906,6.852c1.272,1.766,2.896,2.648,4.873,2.648c1.712,0,3.088-0.613,4.125-1.838
		C117.979,36.109,118.499,34.469,118.499,32.412z"/>
	<path d="M139.953,21.266c0.076-0.027,0.181-0.059,0.314-0.094c0.606-0.163,0.987-0.244,1.14-0.244c0.171,0,0.34,0.05,0.505,0.149
		c0.166,0.099,0.297,0.234,0.392,0.405c0.313,0.506,0.572,1.116,0.776,1.833c0.205,0.717,0.306,1.355,0.306,1.915
		c0,0.397-0.076,0.695-0.228,0.893c-0.151,0.199-0.384,0.299-0.698,0.299c-0.437,0-1.025-0.42-1.766-1.259
		c-0.39-0.442-0.707-0.78-0.954-1.015c-0.523-0.522-1.18-0.922-1.973-1.197s-1.658-0.413-2.6-0.413
		c-1.946,0-3.476,0.627-4.585,1.881c-1.112,1.254-1.667,2.972-1.667,5.155c0,2.805,0.708,5.1,2.123,6.887
		c1.414,1.785,3.208,2.68,5.382,2.68c0.874,0,1.695-0.137,2.465-0.406c0.769-0.271,1.405-0.645,1.908-1.123
		c0.189-0.182,0.422-0.441,0.697-0.785c0.438-0.551,0.807-0.824,1.112-0.824c0.265,0,0.477,0.127,0.634,0.385
		c0.155,0.258,0.234,0.602,0.234,1.035c0,0.875-0.13,1.564-0.392,2.07c-0.262,0.504-0.615,0.758-1.062,0.758
		c-0.037,0-0.083-0.006-0.135-0.014c-0.053-0.01-0.126-0.023-0.222-0.041c-0.911,0.469-1.83,0.816-2.755,1.041
		c-0.926,0.227-1.893,0.34-2.898,0.34c-1.481,0-2.883-0.23-4.202-0.691c-1.319-0.459-2.487-1.119-3.502-1.975
		c-1.14-0.992-2.012-2.186-2.614-3.578c-0.604-1.395-0.904-2.917-0.904-4.569c0-1.324,0.199-2.551,0.598-3.679
		c0.399-1.128,0.997-2.146,1.795-3.058c0.969-1.127,2.146-1.991,3.532-2.591c1.385-0.6,2.91-0.899,4.571-0.899
		c0.542,0,1.144,0.049,1.809,0.148S138.709,20.978,139.953,21.266z"/>
	<path d="M155.848,41.076c-1.146,0-2.245-0.158-3.295-0.477c-1.051-0.316-2.015-0.779-2.89-1.387
		c-1.371-0.943-2.415-2.137-3.131-3.58c-0.718-1.445-1.076-3.062-1.076-4.854c0-2.896,0.941-5.239,2.827-7.031
		c1.886-1.79,4.357-2.686,7.414-2.686c1.21,0,2.346,0.169,3.41,0.508c1.064,0.338,2.024,0.837,2.882,1.497
		c1.245,0.951,2.212,2.162,2.902,3.631c0.69,1.47,1.035,3.057,1.035,4.762c0,1.088-0.157,2.125-0.475,3.112
		c-0.315,0.984-0.774,1.881-1.378,2.686c-0.912,1.191-2.097,2.125-3.553,2.803C159.065,40.736,157.507,41.076,155.848,41.076z
		 M161.909,32.412c0-2.775-0.651-5.053-1.955-6.831c-1.304-1.779-2.944-2.667-4.919-2.667c-1.679,0-3.029,0.615-4.053,1.845
		s-1.536,2.868-1.536,4.916c0,2.803,0.636,5.086,1.909,6.852c1.271,1.766,2.895,2.648,4.87,2.648c1.714,0,3.089-0.613,4.127-1.838
		C161.39,36.109,161.909,34.469,161.909,32.412z"/>
	<path d="M215.899,30.601h10.013c0.36,0,1.017-0.112,1.017-0.793c0-0.709-0.688-0.795-1.017-0.795h-17.701
		c-0.362,0-0.656-0.295-0.656-0.656v-1.352c0-0.364,0.294-0.659,0.656-0.659h14.24c0.357,0,1.014-0.112,1.014-0.793
		c0-0.709-0.686-0.795-1.014-0.795h-14.24c-0.362,0-0.656-0.294-0.656-0.656v-1.098c0-0.363,0.294-0.657,0.656-0.657h14.24
		c0.357,0,1.014-0.114,1.014-0.793c0-0.711-0.686-0.795-1.014-0.795h-14.24c-0.362,0-0.656-0.294-0.656-0.657v-0.904
		c0-0.537,0.148-0.822,0.866-0.822h14.805c0.358,0,1.017-0.113,1.017-0.793c0-0.71-0.688-0.795-1.017-0.795h-16.746
		c-2.297,0-3.104,1.164-3.104,2.723v8.593c0,0.504-0.408,0.91-0.909,0.91h-2.346c-0.357,0-1.014,0.113-1.014,0.795
		c0,0.707,0.686,0.793,1.014,0.793h2.346c0.501,0,0.909,0.407,0.909,0.91v6.657c0,0.463-0.349,0.844-0.798,0.9
		c-1.005,0.09-2.594,0.238-2.785,0.299c-0.686,0.227-0.925,0.881-0.925,1.477c0,0.793,0.567,1.674,1.431,1.674
		c0.659,0,6.868-1.25,12.181-3.094c1.82-0.623,2.03-0.682,2.03-1.248c0-0.369-0.328-0.793-0.807-0.793
		c-0.178,0-1.493,0.281-1.939,0.367c-0.561,0.115-2.192,0.422-3.438,0.621c-0.003,0-0.003,0-0.003,0
		c-0.036,0.006-0.072,0.01-0.111,0.01c-0.362,0-0.656-0.295-0.656-0.658v-6.211c0-0.503,0.405-0.91,0.909-0.91h1.445
		c0.28,0,0.517,0.175,0.612,0.421c0.834,2.523,3.035,6.578,7.242,8.884c3.73,2.043,7.194,2.611,7.641,2.611
		c0.629,0,0.868-0.455,0.868-0.797c0-0.453-0.21-0.68-0.777-0.822c-1.422-0.381-4.218-1.365-6.506-3.414
		c-0.123-0.119-0.202-0.285-0.202-0.471c0-0.25,0.141-0.467,0.346-0.578c1.463-0.547,3.076-1.24,3.915-1.664
		c1.165-0.568,1.493-1.021,1.493-1.588c0-1.049-1.135-1.958-2.122-1.958c-0.686,0-0.834,0.17-1.789,1.078
		c-1.198,1.139-2.044,1.801-2.987,2.52c0,0,0,0-0.002,0c-0.107,0.08-0.241,0.127-0.388,0.127c-0.229,0-0.431-0.121-0.547-0.303
		c-0.387-0.658-0.957-1.737-1.431-3.184c-0.023-0.064-0.034-0.135-0.034-0.205C215.241,30.896,215.537,30.601,215.899,30.601z"/>
</g>
<g>
	<g>
		<path d="M126.781,50.531c-0.27,0.408-0.609,0.723-1.02,0.943c-0.41,0.223-0.856,0.334-1.339,0.334
			c-0.74,0-1.361-0.234-1.862-0.699s-0.752-1.039-0.752-1.721c0-0.689,0.26-1.271,0.78-1.748s1.154-0.715,1.902-0.715
			c0.361,0,0.693,0.043,0.997,0.125c0.305,0.082,0.613,0.217,0.929,0.4l-0.501,1.326l-0.313-0.064c0-0.016,0.002-0.039,0.006-0.07
			c0.003-0.033,0.005-0.057,0.005-0.072c0-0.307-0.101-0.543-0.304-0.713c-0.204-0.17-0.487-0.254-0.853-0.254
			c-0.447,0-0.816,0.145-1.105,0.436c-0.288,0.289-0.433,0.658-0.433,1.107c0,0.51,0.178,0.932,0.533,1.26
			c0.354,0.328,0.812,0.492,1.37,0.492c0.315,0,0.6-0.051,0.854-0.154c0.254-0.104,0.486-0.26,0.694-0.469L126.781,50.531z"/>
		<path d="M130.407,46.926c0.763,0,1.41,0.242,1.939,0.729c0.53,0.484,0.795,1.074,0.795,1.768c0,0.645-0.262,1.205-0.786,1.676
			c-0.524,0.475-1.146,0.711-1.863,0.711c-0.797,0-1.456-0.229-1.977-0.686s-0.78-1.033-0.78-1.734c0-0.691,0.256-1.277,0.769-1.75
			C129.017,47.164,129.651,46.926,130.407,46.926z M132.054,49.779c0-0.504-0.212-0.967-0.635-1.391
			c-0.424-0.428-0.889-0.641-1.394-0.641c-0.368,0-0.661,0.109-0.877,0.322c-0.217,0.215-0.325,0.506-0.325,0.875
			c0,0.5,0.213,0.967,0.638,1.396c0.426,0.428,0.889,0.645,1.391,0.645c0.364,0,0.656-0.111,0.875-0.328
			C131.944,50.439,132.054,50.145,132.054,49.779z"/>
		<path d="M139.394,50.531c-0.271,0.408-0.609,0.723-1.021,0.943c-0.41,0.223-0.856,0.334-1.338,0.334
			c-0.741,0-1.362-0.234-1.863-0.699s-0.752-1.039-0.752-1.721c0-0.689,0.26-1.271,0.78-1.748s1.154-0.715,1.903-0.715
			c0.36,0,0.692,0.043,0.996,0.125c0.305,0.082,0.613,0.217,0.929,0.4l-0.501,1.326l-0.313-0.064c0-0.016,0.002-0.039,0.006-0.07
			c0.003-0.033,0.006-0.057,0.006-0.072c0-0.307-0.102-0.543-0.306-0.713c-0.203-0.17-0.486-0.254-0.851-0.254
			c-0.448,0-0.817,0.145-1.105,0.436c-0.288,0.289-0.433,0.658-0.433,1.107c0,0.51,0.178,0.932,0.531,1.26
			c0.355,0.328,0.813,0.492,1.371,0.492c0.315,0,0.601-0.051,0.854-0.154s0.486-0.26,0.695-0.469L139.394,50.531z"/>
		<path d="M143.019,46.926c0.764,0,1.409,0.242,1.94,0.729c0.529,0.484,0.794,1.074,0.794,1.768c0,0.645-0.262,1.205-0.786,1.676
			c-0.523,0.475-1.145,0.711-1.862,0.711c-0.798,0-1.456-0.229-1.978-0.686c-0.521-0.457-0.78-1.033-0.78-1.734
			c0-0.691,0.257-1.277,0.77-1.75C141.629,47.164,142.264,46.926,143.019,46.926z M144.665,49.779c0-0.504-0.212-0.967-0.636-1.391
			c-0.423-0.428-0.888-0.641-1.393-0.641c-0.367,0-0.66,0.109-0.877,0.322c-0.217,0.215-0.325,0.506-0.325,0.875
			c0,0.5,0.214,0.967,0.639,1.396c0.425,0.428,0.889,0.645,1.39,0.645c0.365,0,0.656-0.111,0.874-0.328
			C144.556,50.439,144.665,50.145,144.665,49.779z"/>
		<path d="M151.073,51.598l-0.199-1.164l0.324-0.082c0.117,0.26,0.295,0.463,0.533,0.607c0.237,0.145,0.516,0.215,0.834,0.215
			c0.266,0,0.469-0.047,0.606-0.139c0.139-0.096,0.208-0.234,0.208-0.418c0-0.205-0.273-0.451-0.82-0.736
			c-0.103-0.055-0.182-0.096-0.239-0.125h-0.005c-0.932-0.512-1.396-1.008-1.396-1.488c0-0.422,0.162-0.75,0.484-0.988
			c0.322-0.234,0.777-0.354,1.361-0.354c0.273,0,0.525,0.018,0.756,0.055c0.229,0.035,0.436,0.088,0.617,0.158v1.064h-0.324
			c-0.065-0.205-0.19-0.365-0.376-0.482c-0.186-0.115-0.416-0.172-0.689-0.172c-0.228,0-0.405,0.043-0.533,0.133
			c-0.127,0.088-0.19,0.209-0.19,0.365c0,0.221,0.293,0.48,0.877,0.779c0.092,0.047,0.162,0.082,0.211,0.107
			c0.566,0.303,0.937,0.561,1.114,0.771c0.176,0.211,0.265,0.465,0.265,0.762c0,0.418-0.17,0.746-0.511,0.984
			c-0.339,0.238-0.814,0.357-1.426,0.357c-0.259,0-0.511-0.018-0.755-0.055C151.554,51.719,151.313,51.666,151.073,51.598z"/>
		<path d="M157.382,50.742c0,0.213,0.029,0.361,0.088,0.445c0.059,0.086,0.166,0.154,0.322,0.209v0.275h-2v-0.275
			c0.163-0.055,0.276-0.123,0.34-0.209c0.062-0.084,0.094-0.232,0.094-0.445v-4.816c0-0.205-0.031-0.344-0.092-0.412
			c-0.06-0.072-0.174-0.105-0.342-0.105v-0.277l1.276-0.752h0.313v3.072c0.422-0.199,0.761-0.336,1.02-0.412
			c0.259-0.074,0.498-0.113,0.718-0.113c0.297,0,0.572,0.063,0.826,0.188c0.254,0.123,0.477,0.303,0.667,0.539
			c0.11,0.137,0.189,0.27,0.239,0.396c0.049,0.129,0.073,0.283,0.073,0.463v0.189v2.041c0,0.217,0.03,0.367,0.088,0.451
			c0.06,0.084,0.163,0.152,0.312,0.203v0.275h-1.972v-0.275c0.156-0.055,0.264-0.123,0.323-0.209
			c0.058-0.084,0.087-0.232,0.087-0.445V48.49c0-0.26-0.098-0.461-0.292-0.604c-0.196-0.143-0.469-0.213-0.818-0.213
			c-0.179,0-0.369,0.025-0.572,0.074c-0.204,0.053-0.437,0.133-0.698,0.244V50.742z"/>
		<path d="M165.952,51.229c-0.339,0.184-0.669,0.326-0.991,0.428s-0.613,0.152-0.872,0.152c-0.467,0-0.841-0.115-1.122-0.344
			c-0.281-0.23-0.421-0.531-0.421-0.902c0-0.656,0.917-1.215,2.751-1.678l0.074-0.016l-0.034-0.211
			c-0.072-0.443-0.163-0.719-0.271-0.824c-0.109-0.107-0.282-0.16-0.521-0.16c-0.259,0-0.461,0.074-0.609,0.227
			s-0.223,0.363-0.223,0.633c0,0.004,0.003,0.023,0.01,0.057c0.004,0.035,0.01,0.068,0.014,0.102l-0.257,0.123l-0.655-0.758
			c0.38-0.396,0.731-0.684,1.058-0.863c0.323-0.178,0.661-0.268,1.011-0.268c0.877,0,1.438,0.727,1.681,2.182
			c0.015,0.086,0.026,0.152,0.034,0.195c0,0.006,0.002,0.02,0.006,0.037c0.201,1.154,0.444,1.732,0.729,1.732
			c0.077,0,0.141-0.018,0.19-0.053c0.053-0.033,0.104-0.096,0.157-0.182l0.308,0.17c-0.105,0.264-0.253,0.463-0.441,0.598
			c-0.188,0.135-0.41,0.203-0.669,0.203c-0.202,0-0.377-0.047-0.527-0.143C166.21,51.574,166.074,51.428,165.952,51.229z
			 M165.719,50.639c-0.034-0.137-0.068-0.287-0.103-0.451s-0.078-0.389-0.131-0.674c-0.168,0.053-0.394,0.121-0.679,0.205
			c-0.743,0.221-1.116,0.463-1.116,0.727c0,0.176,0.063,0.313,0.188,0.406c0.125,0.096,0.304,0.145,0.535,0.145
			c0.205,0,0.425-0.031,0.657-0.094C165.306,50.838,165.521,50.75,165.719,50.639z"/>
		<path d="M173.702,50.531c-0.27,0.408-0.609,0.723-1.02,0.943c-0.41,0.223-0.857,0.334-1.339,0.334
			c-0.74,0-1.361-0.234-1.863-0.699c-0.501-0.465-0.752-1.039-0.752-1.721c0-0.689,0.26-1.271,0.781-1.748
			c0.521-0.477,1.153-0.715,1.902-0.715c0.361,0,0.692,0.043,0.997,0.125c0.304,0.082,0.613,0.217,0.929,0.4l-0.502,1.326
			l-0.313-0.064c0-0.016,0.003-0.039,0.006-0.07c0.004-0.033,0.006-0.057,0.006-0.072c0-0.307-0.102-0.543-0.306-0.713
			c-0.202-0.17-0.486-0.254-0.851-0.254c-0.448,0-0.817,0.145-1.105,0.436c-0.288,0.289-0.433,0.658-0.433,1.107
			c0,0.51,0.178,0.932,0.532,1.26c0.355,0.328,0.813,0.492,1.37,0.492c0.315,0,0.601-0.051,0.854-0.154
			c0.255-0.104,0.487-0.26,0.695-0.469L173.702,50.531z"/>
		<path d="M176.223,50.742c0,0.213,0.029,0.361,0.088,0.445c0.059,0.086,0.166,0.154,0.322,0.209v0.275h-2v-0.275
			c0.163-0.055,0.276-0.123,0.34-0.209c0.062-0.084,0.094-0.232,0.094-0.445v-4.816c0-0.205-0.031-0.344-0.092-0.412
			c-0.061-0.072-0.174-0.105-0.342-0.105v-0.277l1.276-0.752h0.313v3.072c0.422-0.199,0.761-0.336,1.02-0.412
			c0.259-0.074,0.498-0.113,0.718-0.113c0.296,0,0.572,0.063,0.826,0.188c0.254,0.123,0.477,0.303,0.667,0.539
			c0.11,0.137,0.189,0.27,0.239,0.396c0.049,0.129,0.073,0.283,0.073,0.463v0.189v2.041c0,0.217,0.03,0.367,0.088,0.451
			c0.06,0.084,0.163,0.152,0.312,0.203v0.275h-1.972v-0.275c0.156-0.055,0.264-0.123,0.322-0.209
			c0.059-0.084,0.088-0.232,0.088-0.445V48.49c0-0.26-0.098-0.461-0.293-0.604s-0.468-0.213-0.817-0.213
			c-0.179,0-0.369,0.025-0.572,0.074c-0.204,0.053-0.437,0.133-0.698,0.244V50.742z"/>
		<path d="M184.092,46.926c0.764,0,1.411,0.242,1.939,0.729c0.531,0.484,0.796,1.074,0.796,1.768c0,0.645-0.263,1.205-0.787,1.676
			c-0.523,0.475-1.145,0.711-1.862,0.711c-0.798,0-1.456-0.229-1.977-0.686c-0.521-0.457-0.781-1.033-0.781-1.734
			c0-0.691,0.257-1.277,0.77-1.75C182.702,47.164,183.337,46.926,184.092,46.926z M185.738,49.779c0-0.504-0.212-0.967-0.635-1.391
			c-0.424-0.428-0.889-0.641-1.393-0.641c-0.368,0-0.661,0.109-0.878,0.322c-0.217,0.215-0.324,0.506-0.324,0.875
			c0,0.5,0.213,0.967,0.638,1.396c0.425,0.428,0.889,0.645,1.39,0.645c0.365,0,0.656-0.111,0.875-0.328
			C185.629,50.439,185.738,50.145,185.738,49.779z"/>
	</g>
</g>
</svg>
