<?xml version="1.0" encoding="utf-8"?>
<!-- Generator: Adobe Illustrator 15.1.0, SVG Export Plug-In . SVG Version: 6.00 Build 0)  -->
<!DOCTYPE svg PUBLIC "-//W3C//DTD SVG 1.1//EN" "http://www.w3.org/Graphics/SVG/1.1/DTD/svg11.dtd">
<svg version="1.1" id="レイヤー_1" xmlns="http://www.w3.org/2000/svg" xmlns:xlink="http://www.w3.org/1999/xlink" x="0px"
	 y="0px" width="17.438px" height="11.998px" viewBox="0 0 17.438 11.998" enable-background="new 0 0 17.438 11.998"
	 xml:space="preserve">
<path fill="#1D2087" d="M7.855,11.324c-0.115,0-0.227-0.06-0.289-0.167c-0.092-0.159-0.037-0.362,0.122-0.454l8.148-4.704
	L7.688,1.294C7.53,1.203,7.475,0.999,7.567,0.84c0.092-0.158,0.294-0.212,0.455-0.122l8.646,4.992
	c0.104,0.06,0.167,0.169,0.167,0.288s-0.063,0.229-0.167,0.288l-8.646,4.992C7.969,11.309,7.912,11.324,7.855,11.324z"/>
<path fill="#1D2087" d="M1.325,11.324c-0.115,0-0.227-0.06-0.289-0.167C0.945,10.998,1,10.794,1.158,10.703l8.148-4.704L1.158,1.294
	C1,1.203,0.945,0.999,1.037,0.84C1.128,0.682,1.33,0.627,1.491,0.718l8.646,4.992c0.104,0.06,0.167,0.169,0.167,0.288
	s-0.063,0.229-0.167,0.288l-8.646,4.992C1.438,11.309,1.381,11.324,1.325,11.324z"/>
</svg>
