<?xml version="1.0" encoding="utf-8"?>
<!-- Generator: Adobe Illustrator 15.1.0, SVG Export Plug-In . SVG Version: 6.00 Build 0)  -->
<!DOCTYPE svg PUBLIC "-//W3C//DTD SVG 1.1//EN" "http://www.w3.org/Graphics/SVG/1.1/DTD/svg11.dtd">
<svg version="1.1" id="レイヤー_1" xmlns="http://www.w3.org/2000/svg" xmlns:xlink="http://www.w3.org/1999/xlink" x="0px"
	 y="0px" width="100px" height="24px" viewBox="0 0 100 24" enable-background="new 0 0 100 24" xml:space="preserve">
<g>
	<g>
		<g>
			<path d="M46.916,9.499c-0.264,0.348-0.479,0.612-0.791,0.973l0.156,0.119c0.084,0.061,0.145,0.133,0.145,0.191
				c0,0.049-0.037,0.097-0.24,0.276c-0.049,1.163-0.049,3.214-0.049,5.361c0,0.264,0,0.684-0.6,0.684
				c-0.371,0-0.371-0.252-0.371-0.42c0-0.132,0.18-2.974,0.18-3.154c0.012-0.312,0.023-1.858,0.035-2.206
				c-1.006,1.055-1.811,1.475-2.555,1.774v-0.06c1.199-1.068,2.508-2.615,3.275-3.959c0.107-0.191,0.131-0.251,0.299-0.755
				l0.973,0.792c0.059,0.047,0.096,0.119,0.096,0.18C47.469,9.392,47.361,9.439,46.916,9.499z M46.545,7.209
				c-1.092,1.14-1.92,1.728-3.479,2.339l-0.023-0.072c0.84-0.611,2.039-1.751,2.711-2.758c0.156-0.24,0.238-0.504,0.299-0.721
				l0.936,0.852c0.061,0.049,0.084,0.108,0.084,0.18C47.072,7.149,46.928,7.196,46.545,7.209z M53.705,10.472h-2.279
				c-0.012,0.191-0.012,0.395-0.012,0.719c0.012,0.66,0.061,3.898,0.061,4.63c0,1.14-1.164,1.247-1.332,1.247
				c-0.023-0.24-0.061-0.636-1.162-1.211v-0.049c0.287,0.013,0.754,0.024,1.055,0.024c0.6,0,0.6,0,0.6-0.684
				c0-0.755-0.037-4.45-0.049-4.677h-1.857c-0.084,0-0.852,0-1.404,0.107l-0.24-0.468c0.301,0.024,1.02,0.071,1.848,0.071h3.189
				L52.65,9.56c0.07-0.084,0.131-0.156,0.191-0.156c0.072,0,0.168,0.084,0.227,0.133l0.697,0.623
				c0.059,0.048,0.119,0.107,0.119,0.191C53.885,10.472,53.766,10.472,53.705,10.472z M52.998,7.46h-3.623
				c-0.313,0-0.887,0.013-1.414,0.109l-0.24-0.48c0.826,0.072,1.691,0.084,1.846,0.084h1.967l0.445-0.552
				c0.072-0.084,0.143-0.168,0.203-0.168c0.072,0,0.156,0.084,0.217,0.132l0.67,0.564c0.061,0.06,0.121,0.107,0.121,0.18
				C53.189,7.448,53.082,7.46,52.998,7.46z"/>
			<path d="M59.156,16.06c-0.42,0-0.672-0.023-0.887-0.047V15.88c0.719-0.023,2.578-0.264,3.633-0.863
				c0.432-0.252,1.416-0.947,1.416-2.051c0-1.067-0.971-1.715-2.039-1.715c-0.443,0-1.787,0.144-3.586,1.727
				c-0.455,0.396-0.504,0.432-0.623,0.432c-0.277,0-0.889-0.504-0.889-1.02c0-0.203,0.061-0.324,0.133-0.443
				c0.119,0.18,0.324,0.468,0.576,0.468c0.168,0,0.299-0.06,0.658-0.252c0.756-0.42,1.547-0.78,2.352-1.031
				c0.383-0.12,0.912-0.24,1.475-0.24c1.404,0,2.723,0.731,2.723,2.243C64.098,14.896,62.238,16.06,59.156,16.06z"/>
			<path d="M73.123,9.032c-0.959,0.432-1.883,0.695-1.979,0.719c-0.707,1.932-1.402,3.875-2.268,5.745
				c-0.275,0.588-0.371,0.708-0.623,0.708c-0.264,0-0.396-0.336-0.396-0.564c0-0.215,0.014-0.228,0.48-0.982
				c0.9-1.451,1.836-3.959,2.051-4.57c0.037-0.096,0.049-0.119,0.061-0.168c-0.504,0.108-1.031,0.192-1.523,0.192
				c-0.623,0-1.08-0.396-1.211-0.804c0.252,0.084,0.588,0.191,1.15,0.191c0.732,0,1.416-0.168,1.813-0.275
				c0.348-1.163,0.383-1.439,0.383-1.667c0-0.491-0.648-0.72-0.744-0.755c0.121-0.097,0.217-0.181,0.527-0.181
				c0.721,0,1.26,0.588,1.26,0.948c0,0.131-0.047,0.203-0.227,0.479c-0.133,0.205-0.217,0.373-0.445,0.936
				c0.361-0.144,0.625-0.264,0.889-0.432c0.383-0.252,0.467-0.299,0.695-0.299c0.313,0,0.492,0.215,0.492,0.395
				C73.508,8.756,73.471,8.876,73.123,9.032z M75.498,16.252c-1.379,0-3.551-0.155-3.551-1.751c0-0.096,0-0.54,0.277-0.924
				c0.023,1.487,0.863,1.823,2.506,1.823c0.564,0,0.828-0.036,1.188-0.097c0.359-0.059,0.408-0.059,0.492-0.059
				c0.383,0,0.635,0.348,0.635,0.575C77.045,16.252,75.918,16.252,75.498,16.252z M76.793,11.095c-0.096,0-0.527-0.048-0.611-0.048
				c-0.527,0-1.463,0.384-1.799,0.6l-0.061-0.06c0.109-0.096,0.588-0.48,0.684-0.553c0.359-0.311,0.396-0.336,0.396-0.455
				c0-0.348-1.176-0.359-1.332-0.359c-0.287,0-0.49,0.012-0.672,0.023c0.576-0.443,1.271-0.516,1.74-0.516
				c1.33,0,1.99,0.647,1.99,1.055C77.129,10.915,77.068,11.095,76.793,11.095z"/>
		</g>
	</g>
	<polygon points="30.193,4.615 31.99,9.84 37.518,9.938 33.105,13.262 34.721,18.548 30.193,15.378 25.666,18.548 27.283,13.262 
		22.871,9.938 28.396,9.84 	"/>
</g>
</svg>
