<?xml version="1.0" encoding="utf-8"?>
<!-- Generator: Adobe Illustrator 15.1.0, SVG Export Plug-In . SVG Version: 6.00 Build 0)  -->
<!DOCTYPE svg PUBLIC "-//W3C//DTD SVG 1.1//EN" "http://www.w3.org/Graphics/SVG/1.1/DTD/svg11.dtd">
<svg version="1.1" id="レイヤー_1" xmlns="http://www.w3.org/2000/svg" xmlns:xlink="http://www.w3.org/1999/xlink" x="0px"
	 y="0px" width="242px" height="24px" viewBox="0 0 242 24" enable-background="new 0 0 242 24" xml:space="preserve">
<g>
	<g>
		<path d="M1.547,22.578l-0.703-5.141l0.703,0.094c0.447,1.521,1.158,2.686,2.133,3.492c0.973,0.809,2.152,1.211,3.539,1.211
			c1.313,0,2.414-0.377,3.305-1.133c0.891-0.754,1.336-1.664,1.336-2.727c0-1.531-1.412-3.223-4.234-5.078
			c-0.23-0.156-0.402-0.271-0.516-0.344c-0.043-0.031-0.115-0.078-0.219-0.141c-2.719-1.802-4.328-3.109-4.828-3.922
			C1.75,8.401,1.518,7.912,1.367,7.422c-0.152-0.489-0.227-1-0.227-1.531c0-1.5,0.572-2.708,1.719-3.625
			c1.145-0.917,2.66-1.375,4.547-1.375c0.813,0,1.703,0.141,2.672,0.422s1.551,0.422,1.75,0.422c0.166,0,0.338-0.023,0.516-0.07
			c0.176-0.047,0.363-0.112,0.563-0.195l0.578,4.391l-0.672,0.031c-0.531-1.313-1.25-2.323-2.156-3.031
			C9.75,2.151,8.734,1.797,7.609,1.797c-1.115,0-2.035,0.305-2.758,0.914C4.127,3.32,3.766,4.094,3.766,5.031
			c0,1.448,1.51,3.151,4.531,5.109c0.051,0.031,0.082,0.052,0.094,0.063c0.104,0.063,0.254,0.156,0.453,0.281
			c1.916,1.229,3.27,2.266,4.063,3.109c0.469,0.5,0.832,1.07,1.094,1.711c0.26,0.641,0.391,1.289,0.391,1.945
			c0,1.865-0.639,3.324-1.914,4.375c-1.277,1.053-3.051,1.578-5.32,1.578c-0.678,0-1.49-0.139-2.438-0.414
			c-0.949-0.275-1.578-0.414-1.891-0.414c-0.24,0-0.465,0.02-0.672,0.055C1.947,22.467,1.744,22.516,1.547,22.578z"/>
		<path d="M29.109,19.484c0,0.875,0.211,1.506,0.633,1.891c0.422,0.387,1.105,0.578,2.055,0.578h0.359v0.734h-9.031v-0.734h0.359
			c0.947,0,1.633-0.191,2.055-0.578c0.422-0.385,0.633-1.016,0.633-1.891V2.688h-4.641c-1.303,0-2.162,0.227-2.578,0.68
			c-0.418,0.453-0.756,1.519-1.016,3.195h-0.734l0.547-5.672h0.703c0.063,0.177,0.18,0.297,0.352,0.359s0.512,0.094,1.023,0.094
			h15.578c0.52,0,0.869-0.034,1.047-0.102c0.176-0.067,0.301-0.185,0.375-0.352H37.5l0.563,5.672h-0.734
			c-0.25-1.677-0.584-2.742-1-3.195c-0.418-0.453-1.277-0.68-2.578-0.68h-4.641V19.484z"/>
		<path d="M52.375,23.203c-1.594,0-3.098-0.236-4.508-0.711c-1.412-0.473-2.648-1.152-3.711-2.039
			c-1.23-1.031-2.172-2.236-2.828-3.617c-0.656-1.379-0.984-2.852-0.984-4.414c0-1.583,0.33-3.109,0.992-4.578
			c0.66-1.469,1.602-2.75,2.82-3.844c1.125-1.031,2.4-1.813,3.828-2.344c1.426-0.531,2.973-0.797,4.641-0.797
			c1.582,0,3.088,0.24,4.516,0.719c1.426,0.479,2.688,1.167,3.781,2.063c1.219,1,2.15,2.19,2.797,3.57
			c0.645,1.38,0.969,2.867,0.969,4.461c0,1.615-0.336,3.156-1.008,4.625s-1.633,2.756-2.883,3.859
			c-1.156,1.021-2.43,1.785-3.82,2.289C55.586,22.951,54.051,23.203,52.375,23.203z M52.797,22.203c2.52,0,4.586-0.883,6.195-2.648
			s2.414-4.059,2.414-6.883c0-1.396-0.184-2.688-0.547-3.875c-0.365-1.188-0.912-2.266-1.641-3.234
			c-0.906-1.188-1.975-2.106-3.203-2.758c-1.23-0.651-2.516-0.977-3.859-0.977c-2.5,0-4.566,0.87-6.195,2.609
			c-1.631,1.74-2.445,3.953-2.445,6.641c0,1.396,0.195,2.746,0.586,4.047c0.391,1.303,0.93,2.418,1.617,3.344
			c0.863,1.178,1.918,2.094,3.164,2.75C50.127,21.875,51.432,22.203,52.797,22.203z"/>
		<path d="M67.078,22.688v-0.734h0.344c0.947,0,1.633-0.191,2.055-0.578c0.422-0.385,0.633-1.016,0.633-1.891V4.578
			c0-0.875-0.215-1.51-0.641-1.906c-0.428-0.396-1.109-0.594-2.047-0.594h-0.344V1.344h7.281c3.5,0,6.098,0.511,7.797,1.531
			c1.697,1.021,2.547,2.578,2.547,4.672c0,1.292-0.379,2.396-1.133,3.313c-0.756,0.917-1.873,1.625-3.352,2.125l2.047,3.266
			c1.375,2.188,2.496,3.748,3.367,4.68c0.869,0.934,1.658,1.445,2.367,1.539l-0.063,0.672h-0.453c-1.074,0-2.066-0.219-2.977-0.656
			c-0.912-0.438-1.732-1.082-2.461-1.938c-0.855-1.031-1.717-2.293-2.586-3.789c-0.871-1.494-1.414-2.377-1.633-2.648
			c-0.084-0.094-0.203-0.164-0.359-0.211s-0.359-0.07-0.609-0.07c-0.188,0-0.576,0.012-1.164,0.031
			c-0.59,0.021-1.076,0.031-1.461,0.031c-0.125,0-0.313-0.004-0.563-0.016c-0.25-0.01-0.443-0.016-0.578-0.016v5.625
			c0,0.865,0.205,1.492,0.617,1.883c0.41,0.391,1.064,0.586,1.961,0.586h0.453v0.734H67.078z M73.094,13.188h2.453
			c1.781,0,3.172-0.471,4.172-1.414c1-0.942,1.5-2.242,1.5-3.898c0-1.792-0.516-3.164-1.547-4.117s-2.5-1.43-4.406-1.43
			c-0.105,0-0.305-0.005-0.602-0.016c-0.297-0.01-0.545-0.016-0.742-0.016c-0.219,0-0.387,0.003-0.5,0.008
			c-0.115,0.005-0.225,0.013-0.328,0.023V13.188z"/>
		<path d="M87.813,22.688v-0.734h0.641c1.313,0,2.221-0.188,2.727-0.563c0.504-0.375,0.758-1.041,0.758-2V4.578
			c0-0.885-0.211-1.523-0.633-1.914s-1.107-0.586-2.055-0.586h-0.359V1.344h16.047l0.25,4.828h-0.797
			c-0.188-1.469-0.539-2.432-1.055-2.891c-0.516-0.458-1.691-0.688-3.523-0.688h-4.891v8.453h4.406c1.469,0,2.395-0.177,2.781-0.531
			c0.385-0.354,0.641-1.031,0.766-2.031h0.609v6.563h-0.672c-0.105-1.125-0.326-1.867-0.664-2.227
			c-0.34-0.359-1.279-0.539-2.82-0.539h-4.406v6.344c0,1.146,0.207,1.902,0.625,2.266c0.416,0.365,1.291,0.547,2.625,0.547H101
			c1.51,0,2.58-0.268,3.211-0.805c0.629-0.535,1.096-1.549,1.398-3.039h0.703l-0.484,5.094H87.813z"/>
		<path d="M122.281,19.484c0,0.875,0.207,1.506,0.625,1.891c0.416,0.387,1.104,0.578,2.063,0.578h0.344v0.734h-9.063v-0.734h0.359
			c0.947,0,1.633-0.191,2.055-0.578c0.422-0.385,0.633-1.016,0.633-1.891V4.578c0-0.885-0.211-1.523-0.633-1.914
			s-1.107-0.586-2.055-0.586h-0.359V1.344h15.625l0.25,4.281h-0.797c-0.178-1.156-0.484-1.924-0.922-2.305
			c-0.438-0.38-1.303-0.57-2.594-0.57h-5.531v8.031h4.859c1.416,0,2.314-0.153,2.695-0.461c0.379-0.307,0.664-0.888,0.852-1.742
			h0.578v5.984l-0.641-0.031c-0.156-1-0.404-1.661-0.742-1.984c-0.34-0.323-1.191-0.484-2.555-0.484h-0.188h-4.859V19.484z"/>
		<path d="M140.938,19.484c0,0.865,0.211,1.492,0.633,1.883s1.105,0.586,2.055,0.586H144v0.734h-9.047v-0.734h0.344
			c0.947,0,1.633-0.191,2.055-0.578c0.422-0.385,0.633-1.016,0.633-1.891V4.578c0-0.885-0.211-1.523-0.633-1.914
			s-1.107-0.586-2.055-0.586h-0.344V1.344h9.016v0.734h-0.344c-0.949,0-1.633,0.195-2.055,0.586s-0.633,1.029-0.633,1.914V19.484z"
			/>
		<path d="M150.859,19.484c0,0.875,0.207,1.506,0.625,1.891c0.416,0.387,1.104,0.578,2.063,0.578h0.344v0.734h-7.859v-0.734h0.344
			c0.947,0,1.633-0.191,2.055-0.578c0.422-0.385,0.633-1.016,0.633-1.891V4.156c0-0.76-0.146-1.26-0.438-1.5
			c-0.293-0.239-1.074-0.453-2.344-0.641V1.344h5.25L167.5,18.297V4.578c0-0.885-0.215-1.523-0.641-1.914
			c-0.428-0.391-1.109-0.586-2.047-0.586h-0.359V1.344h7.875v0.734h-0.359c-0.938,0-1.621,0.195-2.047,0.586
			c-0.428,0.391-0.641,1.029-0.641,1.914v18.391h-0.953L150.859,4.516V19.484z"/>
		<path d="M174.391,22.688v-0.703h0.344c0.947,0,1.633-0.195,2.055-0.586s0.633-1.027,0.633-1.914V4.578
			c0-0.885-0.211-1.523-0.633-1.914s-1.107-0.586-2.055-0.586h-0.344V1.344c2.719-0.125,4.777-0.216,6.18-0.273
			c1.4-0.057,2.398-0.086,2.992-0.086c2.541,0,4.582,0.175,6.125,0.523c1.541,0.349,2.869,0.914,3.984,1.695
			c1.332,0.927,2.361,2.107,3.086,3.539c0.723,1.433,1.086,3.003,1.086,4.711c0,1.74-0.363,3.332-1.086,4.773
			c-0.725,1.443-1.795,2.711-3.211,3.805c-1.23,0.938-2.592,1.615-4.086,2.031c-1.496,0.418-3.414,0.625-5.758,0.625H174.391z
			 M180.406,1.891v17.469c0,0.906,0.246,1.529,0.742,1.867c0.494,0.34,1.523,0.508,3.086,0.508c3.25,0,5.77-0.875,7.563-2.625
			c1.791-1.75,2.688-4.213,2.688-7.391c0-3.188-0.984-5.622-2.953-7.305c-1.969-1.682-4.828-2.523-8.578-2.523H180.406z"/>
		<path d="M199.125,22.688v-0.734h0.641c1.313,0,2.221-0.188,2.727-0.563c0.504-0.375,0.758-1.041,0.758-2V4.578
			c0-0.885-0.211-1.523-0.633-1.914s-1.107-0.586-2.055-0.586h-0.359V1.344h16.047l0.25,4.828h-0.797
			c-0.188-1.469-0.539-2.432-1.055-2.891c-0.516-0.458-1.691-0.688-3.523-0.688h-4.891v8.453h4.406c1.469,0,2.395-0.177,2.781-0.531
			c0.385-0.354,0.641-1.031,0.766-2.031h0.609v6.563h-0.672c-0.105-1.125-0.326-1.867-0.664-2.227
			c-0.34-0.359-1.279-0.539-2.82-0.539h-4.406v6.344c0,1.146,0.207,1.902,0.625,2.266c0.416,0.365,1.291,0.547,2.625,0.547h2.828
			c1.51,0,2.58-0.268,3.211-0.805c0.629-0.535,1.096-1.549,1.398-3.039h0.703l-0.484,5.094H199.125z"/>
		<path d="M219.703,22.688v-0.734h0.344c0.947,0,1.633-0.191,2.055-0.578c0.422-0.385,0.633-1.016,0.633-1.891V4.578
			c0-0.875-0.215-1.51-0.641-1.906c-0.428-0.396-1.109-0.594-2.047-0.594h-0.344V1.344h7.281c3.5,0,6.098,0.511,7.797,1.531
			c1.697,1.021,2.547,2.578,2.547,4.672c0,1.292-0.379,2.396-1.133,3.313c-0.756,0.917-1.873,1.625-3.352,2.125l2.047,3.266
			c1.375,2.188,2.496,3.748,3.367,4.68c0.869,0.934,1.658,1.445,2.367,1.539l-0.063,0.672h-0.453c-1.074,0-2.066-0.219-2.977-0.656
			c-0.912-0.438-1.732-1.082-2.461-1.938c-0.855-1.031-1.717-2.293-2.586-3.789c-0.871-1.494-1.414-2.377-1.633-2.648
			c-0.084-0.094-0.203-0.164-0.359-0.211s-0.359-0.07-0.609-0.07c-0.188,0-0.576,0.012-1.164,0.031
			c-0.59,0.021-1.076,0.031-1.461,0.031c-0.125,0-0.313-0.004-0.563-0.016c-0.25-0.01-0.443-0.016-0.578-0.016v5.625
			c0,0.865,0.205,1.492,0.617,1.883c0.41,0.391,1.064,0.586,1.961,0.586h0.453v0.734H219.703z M225.719,13.188h2.453
			c1.781,0,3.172-0.471,4.172-1.414c1-0.942,1.5-2.242,1.5-3.898c0-1.792-0.516-3.164-1.547-4.117s-2.5-1.43-4.406-1.43
			c-0.105,0-0.305-0.005-0.602-0.016c-0.297-0.01-0.545-0.016-0.742-0.016c-0.219,0-0.387,0.003-0.5,0.008
			c-0.115,0.005-0.225,0.013-0.328,0.023V13.188z"/>
	</g>
</g>
</svg>
