<?xml version="1.0" encoding="utf-8"?>
<!-- Generator: Adobe Illustrator 15.1.0, SVG Export Plug-In . SVG Version: 6.00 Build 0)  -->
<!DOCTYPE svg PUBLIC "-//W3C//DTD SVG 1.1//EN" "http://www.w3.org/Graphics/SVG/1.1/DTD/svg11.dtd">
<svg version="1.1" id="レイヤー_1" xmlns="http://www.w3.org/2000/svg" xmlns:xlink="http://www.w3.org/1999/xlink" x="0px"
	 y="0px" width="75px" height="25px" viewBox="0 0 75 25" enable-background="new 0 0 75 25" xml:space="preserve">
<g>
	<path fill="#1D2087" d="M19.307,16.024c0,0.438,0.061,0.718,0.184,0.84c0.122,0.122,0.443,0.184,0.965,0.184h1.711
		c0.396,0,0.686-0.034,0.871-0.102c0.185-0.067,0.379-0.188,0.582-0.359c0.135-0.114,0.298-0.282,0.488-0.504
		c0.189-0.222,0.423-0.52,0.699-0.895l0.367,0.023l-1.281,2.492h-7.594v-0.367h0.172c0.474,0,0.816-0.097,1.027-0.289
		s0.316-0.508,0.316-0.945V8.649c0-0.442-0.105-0.762-0.316-0.957s-0.554-0.293-1.027-0.293h-0.172V7.032h4.906v0.367
		c-0.053-0.005-0.111-0.009-0.176-0.012c-0.065-0.002-0.16-0.004-0.285-0.004c-0.516,0-0.885,0.099-1.105,0.297
		c-0.222,0.198-0.332,0.521-0.332,0.969V16.024z"/>
	<path fill="#1D2087" d="M34.054,14.345c0,1.016-0.349,1.862-1.047,2.539s-1.57,1.016-2.617,1.016c-1.031,0-1.891-0.345-2.578-1.035
		s-1.031-1.556-1.031-2.598c0-1.011,0.351-1.853,1.051-2.527s1.571-1.012,2.613-1.012c1.026,0,1.884,0.344,2.574,1.031
		S34.054,13.309,34.054,14.345z M32.71,14.806c0-1.104-0.237-1.996-0.711-2.676s-1.089-1.02-1.844-1.02
		c-0.625,0-1.129,0.239-1.512,0.719s-0.574,1.12-0.574,1.922c0,1.104,0.237,1.999,0.711,2.684s1.081,1.027,1.82,1.027
		c0.651,0,1.165-0.237,1.543-0.711S32.71,15.629,32.71,14.806z"/>
	<path fill="#1D2087" d="M38.027,15.462c-0.527-0.234-0.921-0.53-1.187-0.887s-0.398-0.77-0.398-1.238
		c0-0.708,0.287-1.315,0.863-1.82c0.574-0.505,1.273-0.758,2.097-0.758c0.375,0,0.717,0.055,1.027,0.164
		c0.309,0.109,0.602,0.278,0.879,0.508c0.072,0.016,0.137,0.027,0.195,0.035c0.057,0.008,0.113,0.012,0.172,0.012
		c0.113,0,0.432-0.036,0.953-0.109c0.359-0.058,0.648-0.099,0.867-0.125l0.016,0.992h-0.141c-0.193,0-0.416-0.015-0.668-0.043
		c-0.254-0.028-0.549-0.074-0.887-0.137c0.119,0.177,0.207,0.36,0.266,0.551c0.057,0.19,0.086,0.397,0.086,0.621
		c0,0.719-0.271,1.298-0.813,1.738c-0.543,0.44-1.264,0.66-2.164,0.66c-0.162,0-0.287-0.003-0.375-0.008
		c-0.09-0.005-0.172-0.013-0.25-0.023c-0.381,0.151-0.656,0.294-0.828,0.43s-0.258,0.273-0.258,0.414
		c0.004,0.328,0.695,0.528,2.07,0.602c0.082,0.005,0.145,0.008,0.188,0.008c1.494,0.083,2.465,0.251,2.914,0.504
		c0.447,0.253,0.672,0.671,0.672,1.254c0,0.786-0.43,1.461-1.285,2.023c-0.857,0.563-1.914,0.844-3.168,0.844
		c-0.771,0-1.41-0.157-1.914-0.473c-0.506-0.315-0.758-0.696-0.758-1.145c0-0.359,0.383-0.886,1.148-1.578
		c0.27-0.245,0.48-0.438,0.633-0.578c-0.516-0.058-0.906-0.183-1.172-0.375s-0.398-0.448-0.398-0.766c0-0.214,0.09-0.402,0.27-0.566
		S37.309,15.785,38.027,15.462z M38.457,17.978c-0.458,0.364-0.792,0.681-1,0.949c-0.209,0.269-0.313,0.517-0.313,0.746
		c0,0.386,0.234,0.727,0.703,1.023c0.468,0.297,1.039,0.445,1.71,0.445c0.844,0,1.535-0.181,2.074-0.543s0.809-0.813,0.809-1.355
		c0-0.479-0.246-0.808-0.738-0.984S40.129,17.988,38.457,17.978z M39.402,15.353c0.479,0,0.863-0.169,1.152-0.508
		s0.434-0.794,0.434-1.367c0-0.719-0.152-1.288-0.453-1.707c-0.303-0.419-0.711-0.629-1.227-0.629c-0.49,0-0.879,0.169-1.168,0.508
		c-0.289,0.339-0.433,0.794-0.433,1.367c0,0.719,0.152,1.288,0.457,1.707C38.469,15.143,38.881,15.353,39.402,15.353z"/>
	<path fill="#1D2087" d="M46.141,12.438c0-0.255-0.063-0.44-0.188-0.555s-0.398-0.227-0.82-0.336v-0.305l2.125-0.672h0.133v5.789
		c0,0.396,0.068,0.66,0.207,0.793s0.402,0.204,0.793,0.215l0.008,0.336h-3.266v-0.336c0.391-0.011,0.656-0.083,0.797-0.219
		s0.211-0.398,0.211-0.789V12.438z M46.68,6.892c0.229,0,0.42,0.062,0.574,0.184c0.154,0.123,0.23,0.272,0.23,0.449
		c0,0.177-0.076,0.326-0.23,0.445c-0.154,0.12-0.346,0.18-0.574,0.18c-0.225,0-0.416-0.061-0.574-0.184
		c-0.158-0.122-0.238-0.27-0.238-0.441c0-0.177,0.078-0.327,0.234-0.449C46.258,6.953,46.451,6.892,46.68,6.892z"/>
	<path fill="#1D2087" d="M56.301,14.196c0-0.067,0.004-0.167,0.008-0.297c0.006-0.13,0.008-0.227,0.008-0.289
		c0-0.864-0.094-1.457-0.281-1.777s-0.51-0.48-0.969-0.48c-0.244,0-0.543,0.075-0.895,0.227s-0.795,0.396-1.332,0.734v4.047
		c0,0.391,0.07,0.653,0.211,0.789s0.406,0.208,0.797,0.219v0.336H50.59v-0.336c0.387-0.011,0.65-0.083,0.793-0.219
		c0.145-0.136,0.215-0.398,0.215-0.789v-3.922c0-0.255-0.063-0.44-0.188-0.555s-0.398-0.227-0.82-0.336v-0.305l2.141-0.672h0.109
		v1.313c0.684-0.427,1.258-0.734,1.723-0.922c0.467-0.188,0.879-0.281,1.238-0.281c0.646,0,1.105,0.196,1.375,0.59
		c0.271,0.394,0.406,1.082,0.406,2.066c0,0.214,0,0.376-0.004,0.488c-0.002,0.112-0.008,0.223-0.02,0.332l-0.063,1.336
		c0,0.052-0.002,0.125-0.008,0.219c-0.016,0.328-0.023,0.555-0.023,0.68c0,0.396,0.086,0.656,0.258,0.781s0.496,0.19,0.969,0.195
		l0.008,0.336h-3.633v-0.336h0.078c0.406,0,0.688-0.128,0.844-0.383s0.25-0.802,0.281-1.641L56.301,14.196z"/>
</g>
</svg>
