<?xml version="1.0" encoding="utf-8"?>
<!-- Generator: Adobe Illustrator 15.1.0, SVG Export Plug-In . SVG Version: 6.00 Build 0)  -->
<!DOCTYPE svg PUBLIC "-//W3C//DTD SVG 1.1//EN" "http://www.w3.org/Graphics/SVG/1.1/DTD/svg11.dtd">
<svg version="1.1" id="レイヤー_1" xmlns="http://www.w3.org/2000/svg" xmlns:xlink="http://www.w3.org/1999/xlink" x="0px"
	 y="0px" width="170px" height="35px" viewBox="0 0 170 35" enable-background="new 0 0 170 35" xml:space="preserve">
<g>
	<g>
		<path fill="#FFFFFF" d="M29.418,12.231c0-1.564-0.152-2.023-0.373-2.567l1.869,0.357c0.137,0.034,0.272,0.085,0.272,0.255
			c0,0.119-0.052,0.153-0.562,0.561c0,0.068-0.017,0.969-0.017,1.394h4.352l0.731-0.816c0.084-0.102,0.17-0.221,0.254-0.221
			c0.137,0,0.205,0.085,0.324,0.187l0.985,0.816c0.085,0.085,0.17,0.136,0.17,0.272c0,0.153-0.153,0.17-0.255,0.17H25.441
			c0,0.629,0.017,3.383,0.017,3.943c0,2.313-0.392,6.205-2.907,8.447l-0.102-0.102c1.529-2.924,1.836-4.98,1.836-8.924
			c0-2.141-0.068-3.467-0.34-4.606l1.632,0.833H29.418z M34.212,15.698l0.714-0.815c0.119-0.137,0.188-0.204,0.272-0.204
			c0.136,0,0.187,0.067,0.323,0.187l0.935,0.816c0.067,0.051,0.153,0.136,0.153,0.255c0,0.153-0.137,0.17-0.256,0.17H31.34
			c0,0.51-0.018,2.89,0,3.229h2.771l0.51-0.611c0.103-0.119,0.17-0.205,0.255-0.205s0.188,0.086,0.307,0.17l0.696,0.51
			c0.153,0.119,0.237,0.188,0.237,0.273c0,0.117-0.067,0.152-0.594,0.561c0.017,1.053,0.017,2.617,0.067,3.621
			c0,0.117,0.052,0.68,0.052,0.799c0,0.459-0.375,0.781-0.783,0.781c-0.441,0-0.459-0.188-0.476-0.766h-6.204
			c0,0.477-0.018,0.936-0.833,0.936c-0.17,0-0.459-0.033-0.459-0.426c0-0.051,0.017-0.152,0.034-0.254
			c0.085-0.73,0.085-2.447,0.085-3.639c0-0.832,0-1.324-0.153-2.584l1.479,0.834h1.871c-0.018-0.578-0.035-3.162-0.052-3.688
			c-0.085-1.904-0.17-2.125-0.306-2.465l1.683,0.374c0.153,0.034,0.323,0.085,0.323,0.255s-0.289,0.357-0.51,0.493v1.394H34.212z
			 M28.195,19.744v4.316h6.17v-4.316H28.195z"/>
		<path fill="#FFFFFF" d="M47.115,13.863c-0.459,0-0.611-0.306-1.02-1.122c-0.102-0.221-0.408-0.731-1.02-1.343
			c-1.972,3.06-3.298,4.08-4.402,4.776l-0.068-0.102c1.802-1.904,3.195-4.776,3.484-5.542c0.137-0.357,0.153-0.578,0.188-0.935
			l1.41,0.85c0.119,0.068,0.188,0.17,0.188,0.289c0,0.204-0.17,0.238-0.578,0.306c-0.033,0.051-0.051,0.085-0.102,0.153
			c0.662,0.204,2.566,0.867,2.566,1.989C47.762,13.455,47.626,13.863,47.115,13.863z M47.523,18.385h-4.301
			c-0.424,0-1.24,0-2.006,0.152l-0.34-0.68c1.174,0.102,2.381,0.119,2.618,0.119h0.629l0.017-1.87c-0.594,0-1.207,0.034-1.801,0.153
			l-0.323-0.68c0.356,0.033,0.985,0.084,2.124,0.102c-0.017-0.646-0.033-1.496-0.221-1.989l1.496,0.391
			c0.085,0.017,0.289,0.085,0.289,0.255c0,0.136-0.102,0.205-0.493,0.458c0,0.068,0,0.783-0.017,0.901h0.561l0.357-0.493
			c0.051-0.067,0.136-0.203,0.255-0.203c0.067,0,0.204,0.067,0.323,0.187l0.492,0.476c0.086,0.086,0.17,0.17,0.17,0.256
			c0,0.152-0.136,0.187-0.255,0.187h-1.903l0.017,1.87h0.851l0.34-0.51c0.067-0.103,0.152-0.222,0.238-0.222
			c0.084,0,0.221,0.085,0.322,0.17l0.646,0.526c0.067,0.051,0.17,0.137,0.17,0.256C47.779,18.35,47.643,18.385,47.523,18.385z
			 M47.031,20.611c0,0.186,0.084,3.33,0.084,3.449c0,0.17,0,0.799-0.713,0.799c-0.527,0-0.51-0.271-0.493-1.104h-2.567
			c0,0.084,0.018,0.492,0.018,0.578c0,0.578-0.527,0.68-0.748,0.68c-0.307,0-0.493-0.119-0.493-0.426
			c0-0.188,0.052-0.986,0.052-1.139c0.033-0.883,0.033-1.801,0.033-2.482c0-1.172-0.017-1.377-0.119-1.869l1.411,0.781h2.21
			l0.459-0.475c0.068-0.086,0.17-0.17,0.255-0.17c0.067,0,0.17,0.084,0.222,0.119l0.662,0.51c0.153,0.119,0.204,0.17,0.204,0.271
			C47.507,20.254,47.473,20.287,47.031,20.611z M45.909,20.287h-2.567v3.061h2.567V20.287z M56.057,12.571h-3.926v1.938h1.784
			l0.442-0.425c0.102-0.102,0.203-0.17,0.289-0.17c0.067,0,0.17,0.068,0.271,0.136l0.68,0.476c0.137,0.102,0.188,0.17,0.188,0.255
			c0,0.103-0.051,0.153-0.544,0.544c-0.017,0.357-0.034,0.816-0.034,1.648c0,0.969,0.102,5.219,0.102,6.086
			c0,0.51,0,1.785-1.75,1.955c-0.17-0.867-0.578-1.344-1.004-1.598V23.33c0.272,0.018,0.596,0.051,1.055,0.051
			c0.238,0,0.459,0,0.51-0.254c0.034-0.188,0.018-2.449,0.018-2.822h-1.973c0,1.105,0.034,2.873,0.034,3.979
			c0,0.322,0,0.934-0.815,0.934c-0.307,0-0.426-0.188-0.426-0.441c0-0.697,0.068-3.824,0.068-4.471h-1.598
			c0,0.492,0.018,3.672,0.018,4.063c0,0.188-0.018,0.68-0.715,0.68c-0.476,0-0.476-0.322-0.476-0.492
			c0-0.357,0.067-1.904,0.067-2.211c0.068-3.365,0.051-5.303,0.051-5.711c0-1.768-0.033-2.277-0.118-2.855l1.377,0.731h1.428v-1.938
			h-0.799c-0.323,0-1.19,0.017-2.006,0.17l-0.34-0.68c1.054,0.085,2.107,0.102,2.618,0.102h0.526c0-1.632-0.067-1.887-0.306-2.448
			l1.666,0.442c0.102,0.034,0.254,0.085,0.254,0.238s-0.051,0.187-0.51,0.425c-0.017,0.442-0.017,0.493-0.033,1.343h2.328
			l0.51-0.663c0.086-0.102,0.17-0.221,0.256-0.221c0.119,0,0.221,0.119,0.306,0.204l0.612,0.663c0.102,0.102,0.17,0.17,0.17,0.255
			C56.313,12.554,56.176,12.571,56.057,12.571z M49.428,14.916v2.262h1.615l0.017-2.262H49.428z M49.428,17.586v2.311h1.598
			l0.018-2.311H49.428z M54.137,14.916h-2.006v2.262h2.006V14.916z M54.137,17.586h-2.006l0.033,2.311h1.973V17.586z M54.137,11.704
			c-0.289,0-0.357-0.102-0.715-0.595c-0.203-0.272-0.441-0.544-0.713-0.714V10.31c0.203-0.034,0.356-0.051,0.629-0.051
			c0.594,0,1.376,0.153,1.376,0.816C54.714,11.415,54.477,11.704,54.137,11.704z"/>
		<path fill="#FFFFFF" d="M60.139,17.398c-0.256,0-0.578-0.17-0.578-0.629c0-0.256,0.033-0.307,0.34-0.766
			c0.408-0.629,0.765-1.172,0.85-2.192h0.119c0.238,0.544,0.441,1.19,0.441,1.819C61.311,16.719,60.699,17.398,60.139,17.398z
			 M63.146,10.905c-0.017,0.561-0.017,9.417,0.018,11.796c0,0.221,0.033,1.24,0.033,1.463c0,0.883-0.629,0.969-0.883,0.969
			c-0.153,0-0.494-0.068-0.494-0.545c0-0.271,0.103-1.479,0.119-1.734c0.086-2.021,0.086-6.799,0.086-8.94
			c0-3.229-0.086-3.519-0.307-4.199l1.717,0.442c0.153,0.034,0.289,0.102,0.289,0.271C63.725,10.565,63.725,10.616,63.146,10.905z
			 M64.897,14.984c-0.425,0-0.595-0.408-0.747-0.816c-0.17-0.442-0.392-0.833-0.697-1.173l0.033-0.119
			c0.256,0.034,2.057,0.374,2.057,1.461C65.543,14.832,65.084,14.984,64.897,14.984z M74.824,15.971h-7.921
			c-0.442,0-1.241,0.017-2.006,0.152l-0.34-0.68c1.088,0.085,2.142,0.119,2.618,0.119h1.853c-0.034-0.408-0.034-1.139-0.034-1.581
			h-0.816c-0.424,0-1.24,0.017-2.006,0.153l-0.34-0.663c1.156,0.085,2.363,0.102,2.618,0.102h0.544c0.018-0.51,0.018-1.02,0-1.53
			h-1.563c-0.425,0-1.241,0.017-2.006,0.153l-0.341-0.68c1.156,0.102,2.363,0.119,2.618,0.119h1.274
			c-0.067-0.986-0.203-1.394-0.373-1.887l1.887,0.476c0.204,0.051,0.238,0.153,0.238,0.255c0,0.119-0.068,0.17-0.596,0.51v0.646
			h2.516l0.545-0.68c0.119-0.136,0.17-0.221,0.271-0.221c0.085,0,0.17,0.068,0.307,0.187l0.832,0.68
			c0.068,0.068,0.17,0.153,0.17,0.255c0,0.153-0.152,0.187-0.255,0.187h-4.386v1.53h1.445l0.476-0.595
			c0.103-0.136,0.171-0.221,0.272-0.221c0.085,0,0.17,0.068,0.306,0.187l0.782,0.612c0.085,0.068,0.17,0.119,0.17,0.255
			c0,0.153-0.137,0.17-0.256,0.17h-3.195v1.581h2.805l0.612-0.697c0.103-0.119,0.187-0.221,0.272-0.221
			c0.084,0,0.152,0.051,0.306,0.188l0.782,0.696c0.119,0.103,0.17,0.153,0.17,0.272C75.08,15.953,74.943,15.971,74.824,15.971z
			 M73.839,17.738c-0.052,0.051-0.356,0.254-0.526,0.373c0,1.191,0,2.992,0.016,3.35c0,0.271,0.052,1.479,0.052,1.734
			c0,0.832,0,1.563-1.87,2.021c-0.085-0.373-0.221-1.02-1.445-1.666v-0.119c0.272,0.018,1.463,0.086,1.718,0.086
			c0.34,0,0.442,0,0.407-1.904h-4.623v1.818c0,0.119,0.034,0.715,0.034,0.834c0,0.561-0.408,0.781-0.8,0.781
			c-0.305,0-0.526-0.119-0.526-0.441c0-0.068,0-0.205,0.034-0.391c0.102-0.748,0.136-4.965,0.136-6.053
			c0-0.492-0.102-1.121-0.17-1.461l1.411,0.612h4.352l0.441-0.493c0.086-0.085,0.153-0.17,0.256-0.17
			c0.102,0,0.187,0.068,0.322,0.17l0.646,0.51c0.152,0.119,0.187,0.203,0.187,0.256C73.89,17.652,73.89,17.688,73.839,17.738z
			 M72.189,17.721h-4.623v1.529h4.623V17.721z M72.189,19.658h-4.623v1.547h4.623V19.658z"/>
		<path fill="#FFFFFF" d="M86.369,18.367h-3.281v2.447h1.139l0.51-0.578c0.17-0.188,0.188-0.203,0.256-0.203
			c0.084,0,0.136,0.033,0.306,0.17l0.747,0.578c0.068,0.051,0.154,0.135,0.154,0.254c0,0.154-0.137,0.188-0.256,0.188h-2.855
			c0,0.492,0.051,2.719,0.051,3.178c0,0.545-0.34,0.816-0.85,0.816c-0.307,0-0.441-0.102-0.441-0.475
			c0-0.223,0.084-1.225,0.084-1.43c0.034-1.02,0.034-1.631,0.034-2.09h-1.02c-0.425,0-1.241,0-2.006,0.152l-0.323-0.68
			c1.156,0.102,2.363,0.119,2.602,0.119h0.747c0.017-1.734,0.017-1.938,0.017-2.447h-1.291c-0.426,0-1.241,0.018-2.006,0.152
			l-0.323-0.68c1.155,0.102,2.362,0.119,2.601,0.119h1.768c0.289-0.781,0.816-2.158,0.816-2.89c0-0.085,0-0.153-0.018-0.374h-2.719
			c-0.153,0-1.207,0-2.006,0.153l-0.323-0.68c1.122,0.102,2.295,0.119,2.601,0.119h0.9v-1.819h-0.476c-0.425,0-1.241,0-2.005,0.153
			l-0.341-0.68c1.021,0.085,2.091,0.119,2.821,0.119c-0.017-0.425-0.033-1.717-0.356-2.447l1.836,0.458
			c0.119,0.034,0.187,0.136,0.187,0.238c0,0.119-0.067,0.187-0.203,0.272c-0.153,0.102-0.256,0.17-0.357,0.255v1.224h0.986
			l0.476-0.595c0.136-0.17,0.187-0.221,0.272-0.221c0.102,0,0.221,0.119,0.306,0.187l0.68,0.595
			c0.085,0.085,0.153,0.153,0.153,0.255c0,0.153-0.137,0.187-0.256,0.187h-2.617v1.819h1.598l0.493-0.561
			c0.103-0.119,0.187-0.204,0.255-0.204c0.102,0,0.221,0.085,0.323,0.17l0.663,0.561c0.084,0.068,0.17,0.153,0.17,0.255
			c0,0.17-0.137,0.187-0.256,0.187h-2.753l1.513,0.748c0.068,0.034,0.152,0.119,0.152,0.221c0,0.221-0.17,0.256-0.594,0.323
			c-0.119,0.17-1.021,1.377-1.564,1.972h1.648l0.459-0.578c0.103-0.136,0.17-0.203,0.256-0.203c0.084,0,0.17,0.051,0.322,0.17
			l0.697,0.578c0.102,0.084,0.152,0.17,0.152,0.254C86.623,18.35,86.488,18.367,86.369,18.367z M81.354,17.551
			c-0.492,0-0.561-0.373-0.696-1.359c-0.017-0.17-0.103-0.646-0.425-1.173l0.068-0.067c0.68,0.288,1.206,0.815,1.342,0.951
			c0.153,0.137,0.392,0.408,0.392,0.9C82.034,17.398,81.575,17.551,81.354,17.551z M92.777,24.266
			c-0.493-0.324-1.36-0.918-2.227-2.295c-0.885,1.172-2.244,2.057-2.482,2.193c-0.018,0.34-0.034,0.984-0.884,0.984
			c-0.356,0-0.442-0.203-0.442-0.459c0-0.033,0.034-0.525,0.034-0.576c0.119-1.48,0.153-3.469,0.153-5.883
			c0-1.546-0.034-6.628-0.102-7.428c-0.035-0.34-0.119-0.68-0.17-0.952l1.529,0.714h2.703l0.492-0.408
			c0.153-0.119,0.221-0.17,0.323-0.17c0.085,0,0.153,0.017,0.237,0.085l0.8,0.561c0.067,0.051,0.136,0.119,0.136,0.221
			c0,0.153-0.068,0.204-0.663,0.595c0,0.34,0.017,1.955,0.017,2.193c-0.033,1.104-1.02,1.444-1.479,1.598
			c-0.238-0.85-0.969-1.207-1.479-1.461v-0.085c0.374,0.034,0.748,0.034,1.139,0.034c0.408,0,0.544,0,0.612-0.204
			c0.051-0.119,0.051-1.071,0.051-1.292v-1.258H88c0.018,0.561,0.018,1.224,0,5.236h3.332l0.561-0.578
			c0.051-0.051,0.137-0.103,0.222-0.103c0.067,0,0.118,0.034,0.204,0.085l0.935,0.697c0.067,0.051,0.136,0.119,0.136,0.203
			c0,0.222-0.459,0.477-0.697,0.613c-0.391,1.375-0.799,2.752-1.547,3.959c1.105,1.293,2.244,1.785,3.18,2.092v0.068
			C93.678,23.365,93.1,23.738,92.777,24.266z M88.901,16.616H88c0.018,0.663,0.068,6.815,0.068,7.325
			c1.088-1.139,1.699-2.107,2.04-2.77C89.428,19.709,89.071,18.23,88.901,16.616z M89.156,16.616
			c0.255,1.257,0.697,2.583,1.377,3.638c0.51-1.293,0.765-2.465,1.003-3.638H89.156z"/>
		<path fill="#FFFFFF" d="M110.201,16.889c-1.648,0.322-3.229,0.934-4.775,1.598c0.051,0.289,0.17,1.02,0.17,2.006
			c0,0.357,0,1.479-0.612,1.479c-0.629,0-0.629-0.969-0.629-1.258c0-0.256,0-1.41-0.017-1.666c-1.14,0.715-2.432,1.955-2.432,2.873
			c0,1.291,2.227,1.291,2.721,1.291c0.918,0,1.954-0.17,2.6-0.289c0.323-0.051,0.426-0.068,0.596-0.068
			c0.73,0,1.02,0.443,1.02,0.748c0,0.307-0.306,0.494-0.527,0.545c-0.306,0.068-1.818,0.17-2.6,0.17c-0.936,0-4.506,0-4.506-2.107
			c0-1.598,2.092-3.145,3.061-3.791c-0.153-0.9-0.391-1.75-1.462-1.75c-1.037,0-1.853,1.02-2.125,1.461
			c-0.765,1.189-0.833,1.207-1.122,1.207c-0.408,0-0.492-0.289-0.492-0.697c0-0.611,0.187-0.766,0.373-0.936
			c1.207-1.035,2.074-2.412,2.907-3.79c-0.51,0.085-1.003,0.17-1.513,0.17c-1.156,0-1.717-0.629-1.684-1.513
			c0.527,0.493,1.004,0.629,1.752,0.629c0.713,0,1.699-0.153,1.971-0.204c0.238-0.391,0.936-1.649,0.936-1.938
			c0-0.238-0.374-0.595-1.156-0.697c0.188-0.187,0.442-0.408,1.037-0.408c0.833,0,1.547,0.629,1.547,0.986
			c0,0.238-0.152,0.442-0.271,0.595c-0.357,0.425-0.408,0.493-0.885,1.19c0.375-0.102,2.006-0.782,2.363-0.782
			c0.408,0,0.9,0.238,0.9,0.578c0,0.238-0.187,0.357-0.356,0.425c-0.782,0.34-2.651,0.646-3.62,0.799
			c-1.53,2.209-1.684,2.448-1.904,2.856c0.391-0.188,0.918-0.459,1.733-0.459c1.563,0,1.888,1.02,2.074,1.648
			c1.155-0.68,2.821-1.479,3.314-1.717c0.306-0.152,0.425-0.271,0.425-0.492c0-0.222-0.136-0.324-0.527-0.613
			c0.119-0.033,0.188-0.051,0.357-0.051c0.612,0,1.938,0.494,1.938,1.445C110.779,16.752,110.559,16.82,110.201,16.889z"/>
		<path fill="#FFFFFF" d="M127.61,24.674c-3.791,0-3.791,0-3.791-2.652c0-0.867,0-2.193,0.034-3.008h-2.074l0.782,0.406
			c0.119,0.068,0.222,0.137,0.222,0.289c0,0.205-0.17,0.273-0.562,0.357c-0.952,2.414-2.601,4.623-6.646,5.049l-0.017-0.119
			c2.006-0.611,3.756-1.92,4.776-3.756c0.526-0.936,0.544-1.564,0.577-2.227h-0.951c0.051,0.984-0.714,0.984-0.816,0.984
			c-0.492,0-0.526-0.289-0.526-0.475c0-0.137,0.034-0.357,0.034-0.443c0.068-1.324,0.119-4.385,0.119-5.149
			c0-2.839-0.103-3.434-0.222-4.232l1.513,0.816h6.341l0.476-0.544c0.102-0.119,0.204-0.221,0.307-0.221
			c0.084,0,0.203,0.068,0.306,0.153l0.782,0.663c0.136,0.119,0.187,0.187,0.187,0.306c0,0.17-0.34,0.391-0.629,0.578
			c-0.034,0.493-0.034,0.918-0.034,1.122c0,1.768,0.119,5.541,0.153,6.205c0.017,0.186,0.017,0.322,0.017,0.373
			c0,0.578-0.611,0.766-0.884,0.766c-0.425,0-0.425-0.221-0.425-0.9h-1.632v3.568c0,0.766,0.17,0.885,0.952,0.885
			c0.884,0,2.346,0,2.617-0.051c0.799-0.17,1.088-1.293,1.564-3.18h0.084c0.068,0.867,0.171,2.211,0.357,2.533
			c0.034,0.068,0.34,0.322,0.426,0.391c0.067,0.051,0.102,0.152,0.102,0.271C131.129,24.674,128.63,24.674,127.61,24.674z
			 M126.658,10.922h-6.715v2.193h6.715V10.922z M126.658,13.522h-6.715v2.346h6.715V13.522z M126.658,16.276h-6.715v2.329h6.715
			V16.276z"/>
		<path fill="#FFFFFF" d="M142.724,24.027c-1.632,0-3.314-0.662-3.314-1.988c0-1.174,1.173-1.479,1.87-1.479
			c1.274,0,2.227,0.883,2.668,2.293c1.36-0.236,2.313-1.699,2.313-2.99c0-1.344-1.037-2.533-2.771-2.533
			c-3.314,0-5.508,3.213-5.762,3.604c-0.426,0.68-0.578,0.936-0.936,0.936c-0.203,0-0.578-0.119-0.578-0.715
			c0-0.561,0.137-0.697,1.156-1.682c1.359-1.344,5.541-6.766,5.541-7.412c0-0.102-0.051-0.17-0.187-0.17
			c-0.221,0-1.513,0.425-2.431,0.918c-0.034,0.017-0.697,0.374-0.748,0.374c-0.374,0-1.377-0.544-1.377-1.598
			c0-0.306,0.085-0.442,0.188-0.561c0.391,0.646,0.697,0.799,1.172,0.799c0.816,0,2.618-0.51,3.129-0.68
			c0.118-0.034,0.68-0.221,0.764-0.221c0.646,0,1.242,0.816,1.242,1.173c0,0.272,0,0.289-0.613,0.748
			c-0.441,0.34-3.705,4.079-4.385,5.185c1.02-0.578,2.312-1.207,4.08-1.207c2.736,0,3.807,1.631,3.807,3.178
			C147.551,21.953,145.852,24.027,142.724,24.027z M140.871,21.24c-0.34,0-0.816,0.221-0.816,0.713c0,0.885,1.751,1.275,2.244,1.275
			c0.255,0,0.391-0.033,0.595-0.102C142.537,21.869,141.432,21.24,140.871,21.24z"/>
	</g>
</g>
</svg>
