<?xml version="1.0" encoding="utf-8"?>
<!-- Generator: Adobe Illustrator 15.1.0, SVG Export Plug-In . SVG Version: 6.00 Build 0)  -->
<!DOCTYPE svg PUBLIC "-//W3C//DTD SVG 1.1//EN" "http://www.w3.org/Graphics/SVG/1.1/DTD/svg11.dtd">
<svg version="1.1" id="レイヤー_1" xmlns="http://www.w3.org/2000/svg" xmlns:xlink="http://www.w3.org/1999/xlink" x="0px"
	 y="0px" width="920px" height="60px" viewBox="0 0 920 60" enable-background="new 0 0 920 60" xml:space="preserve">
<g>
	<path d="M312.801,20.37v-0.378h0.158c0.527,0,0.891-0.107,1.09-0.321s0.322-0.658,0.369-1.332l0.536-8.06
		c0.006-0.053,0.01-0.107,0.013-0.163s0.004-0.13,0.004-0.224c0-0.381-0.082-0.65-0.246-0.809s-0.478-0.272-0.94-0.343V8.364h2.742
		l4.676,9.879l4.755-9.879h2.698v0.378c-0.498,0.059-0.829,0.146-0.993,0.264s-0.246,0.299-0.246,0.545
		c0,0.07,0.003,0.163,0.009,0.277s0.015,0.239,0.026,0.374l0.554,7.919c0.064,0.867,0.188,1.396,0.369,1.586
		s0.539,0.286,1.072,0.286h0.088v0.378h-4.676v-0.378h0.176c0.527,0,0.911-0.114,1.151-0.343s0.36-0.595,0.36-1.099
		c0-0.088-0.001-0.157-0.004-0.207s-0.007-0.095-0.013-0.136l-0.571-7.849l-4.755,9.923l-0.554,0.088l-4.843-10.028l-0.492,7.998
		c0,0.035-0.003,0.088-0.009,0.158s-0.009,0.117-0.009,0.141c0,0.498,0.103,0.845,0.308,1.042s0.571,0.3,1.099,0.312v0.378H312.801z
		"/>
	<path d="M334.035,20.528l-2.733-5.897c-0.252-0.545-0.495-0.92-0.729-1.125s-0.524-0.316-0.87-0.334l-0.026-0.378h3.797v0.378
		c-0.393,0.018-0.661,0.07-0.804,0.158s-0.215,0.237-0.215,0.448c0,0.059,0.012,0.132,0.035,0.22s0.059,0.179,0.105,0.272
		l2.145,4.588l1.547-4.017c0.105-0.27,0.177-0.475,0.215-0.615s0.057-0.264,0.057-0.369c0-0.234-0.085-0.404-0.255-0.51
		s-0.457-0.164-0.861-0.176v-0.378h3.111l-0.018,0.378c-0.363,0.076-0.647,0.207-0.853,0.391s-0.407,0.523-0.606,1.015l-3.349,8.438
		c-0.287,0.732-0.549,1.225-0.787,1.477s-0.526,0.378-0.866,0.378c-0.234,0-0.422-0.061-0.563-0.18
		c-0.141-0.12-0.211-0.277-0.211-0.47c0-0.264,0.246-0.486,0.738-0.668c0.1-0.035,0.179-0.064,0.237-0.088
		c0.258-0.1,0.473-0.255,0.646-0.466s0.356-0.56,0.549-1.046L334.035,20.528z"/>
	<path d="M346.797,18.568c0,0.492,0.117,0.847,0.352,1.063s0.621,0.325,1.16,0.325h0.193v0.413h-5.089v-0.413h0.193
		c0.533,0,0.918-0.108,1.156-0.325s0.356-0.571,0.356-1.063v-8.385c0-0.504-0.122-0.873-0.365-1.107s-0.625-0.352-1.147-0.352
		c-0.012,0-0.031,0.003-0.057,0.009s-0.048,0.009-0.066,0.009c-0.023,0-0.04-0.001-0.048-0.004s-0.016-0.007-0.022-0.013V8.329
		h4.518c1.676,0,2.937,0.293,3.784,0.879s1.27,1.462,1.27,2.628c0,1.113-0.403,1.986-1.208,2.619s-1.926,0.949-3.362,0.949
		c-0.234,0-0.486-0.009-0.756-0.026s-0.557-0.047-0.861-0.088V18.568z M346.797,14.807c0.223,0.047,0.432,0.083,0.628,0.11
		s0.382,0.04,0.558,0.04c0.984,0,1.764-0.3,2.338-0.901s0.861-1.411,0.861-2.43c0-0.92-0.27-1.619-0.809-2.096
		s-1.324-0.716-2.355-0.716c-0.059,0-0.171-0.003-0.338-0.009s-0.306-0.009-0.417-0.009c-0.123,0-0.217,0.001-0.281,0.004
		s-0.126,0.007-0.185,0.013V14.807z"/>
	<path d="M358.047,19.474c-0.352,0.375-0.708,0.655-1.068,0.839s-0.737,0.277-1.129,0.277c-0.533,0-0.951-0.139-1.252-0.417
		s-0.453-0.664-0.453-1.156c0-0.322,0.085-0.611,0.255-0.866s0.407-0.444,0.712-0.567c0.082-0.035,0.457-0.17,1.125-0.404
		s1.271-0.472,1.811-0.712v-1.371c0-0.715-0.103-1.214-0.308-1.499s-0.554-0.426-1.046-0.426c-0.34,0-0.604,0.088-0.791,0.264
		s-0.281,0.422-0.281,0.738c0,0.076,0,0.132,0,0.167s0.003,0.07,0.009,0.105l-1.327,0.545v-0.079c0-0.586,0.299-1.125,0.896-1.617
		s1.26-0.738,1.986-0.738c0.281,0,0.551,0.044,0.809,0.132s0.486,0.214,0.686,0.378c0.264,0.217,0.45,0.457,0.558,0.721
		s0.163,0.718,0.163,1.362v0.141v3.278c0,0.434,0.035,0.71,0.105,0.831s0.196,0.18,0.378,0.18c0.123,0,0.256-0.028,0.4-0.083
		s0.309-0.142,0.497-0.259l0.097,0.272c-0.404,0.381-0.751,0.659-1.042,0.835s-0.549,0.264-0.778,0.264
		c-0.287,0-0.519-0.1-0.694-0.299S358.082,19.831,358.047,19.474z M358.047,16.881c-0.51,0.275-1.087,0.545-1.731,0.809
		c-0.188,0.076-0.311,0.129-0.369,0.158c-0.17,0.088-0.303,0.218-0.4,0.391s-0.145,0.368-0.145,0.584
		c0,0.299,0.097,0.548,0.29,0.747s0.434,0.299,0.721,0.299c0.229,0,0.479-0.066,0.751-0.198s0.567-0.33,0.883-0.593V16.881z"/>
	<path d="M363.47,17.848c-0.592-0.264-1.037-0.596-1.336-0.998s-0.448-0.866-0.448-1.393c0-0.797,0.324-1.479,0.971-2.048
		s1.434-0.853,2.36-0.853c0.422,0,0.807,0.062,1.156,0.185s0.678,0.313,0.989,0.571c0.082,0.018,0.155,0.031,0.22,0.04
		s0.129,0.013,0.193,0.013c0.129,0,0.486-0.041,1.072-0.123c0.404-0.064,0.729-0.111,0.976-0.141l0.018,1.116h-0.158
		c-0.217,0-0.467-0.016-0.751-0.048s-0.617-0.083-0.998-0.154c0.135,0.199,0.234,0.406,0.299,0.62s0.097,0.447,0.097,0.699
		c0,0.809-0.305,1.46-0.914,1.956s-1.421,0.743-2.435,0.743c-0.182,0-0.322-0.003-0.422-0.009s-0.193-0.015-0.281-0.026
		c-0.428,0.17-0.738,0.331-0.932,0.483s-0.29,0.308-0.29,0.466c0.006,0.369,0.782,0.595,2.329,0.677
		c0.094,0.006,0.164,0.009,0.211,0.009c1.682,0.094,2.774,0.283,3.278,0.567s0.756,0.754,0.756,1.411
		c0,0.885-0.482,1.644-1.446,2.276s-2.152,0.949-3.564,0.949c-0.867,0-1.585-0.177-2.153-0.532s-0.853-0.784-0.853-1.288
		c0-0.404,0.431-0.996,1.292-1.775c0.305-0.275,0.542-0.492,0.712-0.65c-0.58-0.064-1.02-0.205-1.318-0.422
		s-0.448-0.504-0.448-0.861c0-0.24,0.101-0.453,0.303-0.637S362.661,18.211,363.47,17.848z M363.953,20.678
		c-0.516,0.41-0.891,0.766-1.125,1.068s-0.352,0.582-0.352,0.839c0,0.434,0.264,0.817,0.791,1.151s1.169,0.501,1.925,0.501
		c0.949,0,1.727-0.204,2.333-0.611s0.91-0.916,0.91-1.525c0-0.539-0.277-0.908-0.831-1.107S365.834,20.689,363.953,20.678z
		 M365.017,17.725c0.539,0,0.971-0.19,1.296-0.571s0.488-0.894,0.488-1.538c0-0.809-0.17-1.449-0.51-1.92s-0.8-0.708-1.38-0.708
		c-0.551,0-0.989,0.19-1.314,0.571s-0.488,0.894-0.488,1.538c0,0.809,0.171,1.449,0.514,1.92S364.431,17.725,365.017,17.725z"/>
	<path d="M376.645,18.656c-0.521,0.674-1.047,1.17-1.578,1.49s-1.088,0.479-1.674,0.479c-0.967,0-1.767-0.374-2.399-1.121
		s-0.949-1.695-0.949-2.843c0-1.207,0.343-2.196,1.028-2.966s1.559-1.156,2.619-1.156c1.166,0,2.203,0.814,3.111,2.443
		c0.012,0.018,0.021,0.032,0.026,0.044v0.343h-5.476c-0.018,0.135-0.031,0.265-0.04,0.391s-0.013,0.253-0.013,0.382
		c0,1.043,0.259,1.885,0.778,2.527s1.194,0.962,2.026,0.962c0.398,0,0.791-0.097,1.178-0.29s0.782-0.492,1.187-0.896L376.645,18.656
		z M371.441,14.991h3.744c-0.076-0.609-0.281-1.093-0.615-1.45s-0.747-0.536-1.239-0.536c-0.48,0-0.886,0.173-1.217,0.519
		S371.559,14.358,371.441,14.991z"/>
</g>
<g>
	<path d="M321.878,31.972c-0.28,0.069-0.364,0.153-0.672,0.435c-2.633,2.507-3.012,2.745-3.642,3.151
		c1.009,0.798,1.443,1.526,1.443,2.087c0,0.336-0.182,0.658-0.546,0.658c-0.308,0-0.448-0.224-0.826-0.854
		c-0.154-0.253-1.149-1.836-3.516-3.447c0.645,0.127,1.751,0.352,3.18,1.359c0.813-0.756,2.536-2.801,3.264-3.979
		c-2.549,0.168-2.843,0.196-5.449,0.533c-0.308,0.041-1.667,0.209-2.283,0.56c-0.252,0.154-0.28,0.154-0.336,0.154
		c-0.294,0-1.218-0.882-1.218-1.639c0-0.252,0.056-0.435,0.126-0.645c0.49,0.896,0.714,0.938,1.358,0.938
		c0.546,0,7.102-0.42,7.536-0.504c0.294-0.056,0.42-0.154,0.645-0.309c0.182-0.126,0.266-0.153,0.336-0.153
		c0.238,0,1.205,1.134,1.205,1.315C322.48,31.817,322.424,31.817,321.878,31.972z"/>
	<path d="M333.903,29.814c-0.126,0.069-0.252,0.183-0.532,0.435c-0.084,0.084-1.695,1.778-2.017,2.114
		c0.224,0.112,0.7,0.406,0.7,0.604c0,0.084-0.126,0.447-0.168,0.518c-0.028,0.057-0.042,1.162-0.042,1.443
		c0,0.63,0.056,3.403,0.056,3.963c0,0.295-0.042,0.869-0.435,0.869c-0.462,0-0.742-0.771-0.742-1.064
		c0-0.126,0.14-0.672,0.154-0.785c0.098-0.728,0.154-1.75,0.154-2.507c0-0.476-0.056-2.003-0.112-2.228
		c-0.028-0.098-0.07-0.182-0.168-0.252c-0.896,0.841-2.661,2.354-4.944,3.236l-0.056-0.07c3.25-2.157,6.948-6.401,6.948-7.004
		c0-0.336-0.154-0.448-0.714-0.854c0.168-0.042,0.336-0.084,0.56-0.084c0.827,0,1.737,0.938,1.737,1.303
		C334.281,29.563,334.253,29.591,333.903,29.814z"/>
	<path d="M350.536,37.519c-0.896,0-4.917-4.44-4.931-4.468c-0.406-0.463-1.064-1.205-1.429-1.43
		c-0.056-0.042-0.154-0.098-0.308-0.098c-0.462,0-1.148,0.98-1.471,1.443c-0.392,0.56-1.289,1.862-1.443,2.254
		c-0.21,0.561-0.238,0.617-0.49,0.617c-0.35,0-1.457-0.854-1.457-1.766c0-0.14,0.014-0.238,0.056-0.392
		c0.224,0.267,0.588,0.687,0.854,0.687c0.224,0,0.238,0,1.737-1.667c1.569-1.737,1.751-1.933,2.297-1.933
		c0.477,0,0.84,0.266,2.003,1.555c1.134,1.246,2.381,2.395,3.824,3.264c0.756,0.462,1.093,1.064,1.093,1.498
		C350.873,37.379,350.676,37.519,350.536,37.519z M348.883,32.027c-0.729,0-1.331-0.602-1.331-1.331c0-0.729,0.602-1.33,1.331-1.33
		s1.331,0.602,1.331,1.33C350.214,31.426,349.612,32.027,348.883,32.027z M348.883,29.898c-0.448,0-0.798,0.351-0.798,0.798
		c0,0.448,0.35,0.813,0.798,0.813s0.813-0.365,0.813-0.813C349.696,30.249,349.332,29.898,348.883,29.898z"/>
	<path d="M363.416,34.465c-0.126,0-0.462-0.027-0.49-0.027c-0.504-0.043-0.644-0.057-1.583-0.057c-4.272,0-5.533,0.084-6.164,0.252
		c-0.042,0.014-0.49,0.127-0.532,0.127c-0.364,0-1.121-0.896-1.121-1.541c0-0.084,0.014-0.351,0.168-0.673
		c0.477,1.064,0.911,1.064,2.367,1.064c0.967,0,5.519-0.014,6.164-0.168c0.084-0.015,0.49-0.126,0.574-0.126s1.485,0.154,1.485,0.7
		C364.284,34.451,363.584,34.465,363.416,34.465z"/>
	<path d="M371.309,33.947c-0.14,0-0.252-0.07-1.149-0.673c-0.714-0.477-1.443-0.771-2.171-1.051c0.294-0.042,0.588-0.084,1.05-0.084
		c0.14,0,1.345,0,1.947,0.336c0.658,0.364,0.714,0.896,0.714,1.009C371.701,33.807,371.462,33.947,371.309,33.947z M371.687,38.527
		c-0.224,0.154-0.252,0.182-0.49,0.448c-0.112,0.14-0.224,0.267-0.42,0.267c-0.378,0-1.331-0.939-1.331-1.863
		c0-0.112,0.014-0.196,0.042-0.365c0.14,0.154,0.701,0.827,1.093,0.827c0.168,0,0.322-0.056,0.49-0.154
		c2.283-1.303,4.734-3.376,7.172-6.275l0.098,0.07C376.659,34.619,374.6,36.566,371.687,38.527z M372.527,30.879
		c-0.182,0-0.252-0.057-0.924-0.616c-0.896-0.742-1.597-1.064-2.115-1.303c0.266-0.042,0.378-0.057,0.645-0.057
		c0.084,0,2.773,0.029,2.773,1.514C372.905,30.809,372.625,30.879,372.527,30.879z M377.486,30.963
		c-0.168,0-0.182-0.014-0.701-0.589c-0.42-0.461-0.882-0.867-1.4-1.189c0.882,0.014,2.437,0.406,2.437,1.344
		C377.822,30.837,377.626,30.963,377.486,30.963z M378.676,29.675c-0.154,0-0.196-0.057-0.658-0.505
		c-0.434-0.42-0.938-0.771-1.527-1.036c0.182-0.014,0.28-0.028,0.406-0.028c0.56,0,2.143,0.238,2.143,1.163
		C379.041,29.548,378.831,29.675,378.676,29.675z"/>
</g>
<g>
	<path d="M102.818,18.568c0,0.492,0.119,0.847,0.356,1.063s0.623,0.325,1.156,0.325h0.202v0.413h-5.08v-0.413h0.202
		c0.533,0,0.918-0.108,1.156-0.325s0.356-0.571,0.356-1.063V9.12h-2.61c-0.732,0-1.216,0.127-1.45,0.382s-0.425,0.854-0.571,1.797
		h-0.413l0.308-3.19h0.396c0.035,0.1,0.101,0.167,0.198,0.202s0.289,0.053,0.576,0.053h8.763c0.293,0,0.489-0.019,0.589-0.057
		s0.17-0.104,0.211-0.198h0.378l0.316,3.19h-0.413c-0.141-0.943-0.328-1.542-0.563-1.797s-0.718-0.382-1.45-0.382h-2.61V18.568z"/>
	<path d="M115.905,20.66c-0.896,0-1.742-0.133-2.536-0.4s-1.49-0.649-2.087-1.147c-0.691-0.58-1.222-1.258-1.591-2.035
		s-0.554-1.604-0.554-2.483c0-0.891,0.186-1.749,0.558-2.575s0.901-1.547,1.586-2.162c0.633-0.58,1.351-1.02,2.153-1.318
		s1.673-0.448,2.61-0.448c0.891,0,1.737,0.135,2.54,0.404s1.512,0.656,2.127,1.16c0.686,0.563,1.21,1.232,1.573,2.008
		s0.545,1.613,0.545,2.509c0,0.908-0.189,1.775-0.567,2.602s-0.918,1.55-1.622,2.171c-0.65,0.574-1.367,1.003-2.149,1.288
		S116.848,20.66,115.905,20.66z M116.142,20.098c1.418,0,2.58-0.497,3.485-1.49s1.358-2.284,1.358-3.872
		c0-0.785-0.103-1.512-0.308-2.18s-0.513-1.274-0.923-1.819c-0.51-0.668-1.11-1.185-1.802-1.551s-1.415-0.549-2.171-0.549
		c-1.406,0-2.568,0.489-3.485,1.468s-1.375,2.224-1.375,3.735c0,0.785,0.11,1.544,0.33,2.276s0.523,1.359,0.91,1.881
		c0.486,0.662,1.08,1.178,1.78,1.547S115.375,20.098,116.142,20.098z"/>
	<path d="M127.559,18.568c0,0.492,0.117,0.847,0.352,1.063s0.621,0.325,1.16,0.325h0.193v0.413h-5.089v-0.413h0.193
		c0.533,0,0.918-0.108,1.156-0.325s0.356-0.571,0.356-1.063v-8.385c0-0.504-0.122-0.873-0.365-1.107s-0.625-0.352-1.147-0.352
		c-0.012,0-0.031,0.003-0.057,0.009s-0.048,0.009-0.066,0.009c-0.023,0-0.04-0.001-0.048-0.004s-0.016-0.007-0.022-0.013V8.329
		h4.518c1.676,0,2.937,0.293,3.784,0.879s1.27,1.462,1.27,2.628c0,1.113-0.403,1.986-1.208,2.619s-1.926,0.949-3.362,0.949
		c-0.234,0-0.486-0.009-0.756-0.026s-0.557-0.047-0.861-0.088V18.568z M127.559,14.807c0.223,0.047,0.432,0.083,0.628,0.11
		s0.382,0.04,0.558,0.04c0.984,0,1.764-0.3,2.338-0.901s0.861-1.411,0.861-2.43c0-0.92-0.27-1.619-0.809-2.096
		s-1.324-0.716-2.355-0.716c-0.059,0-0.171-0.003-0.338-0.009s-0.306-0.009-0.417-0.009c-0.123,0-0.217,0.001-0.281,0.004
		s-0.126,0.007-0.185,0.013V14.807z"/>
</g>
<g>
	<path d="M83.295,35.571c-0.21,0-0.392-0.182-0.616-0.42c-1.289-1.429-2.017-1.933-2.983-2.298c0,0.547-0.028,2.984-0.014,3.488
		c0,0.364,0.084,1.975,0.084,2.297c0,0.295,0,1.121-0.546,1.121c-0.462,0-0.658-0.813-0.658-1.177c0-0.21,0.014-0.336,0.098-0.938
		c0.168-1.106,0.182-3.32,0.182-4.51c0-0.604-0.014-3.391-0.126-3.839c-0.084-0.309-0.393-0.448-1.121-0.7
		c0.28-0.168,0.617-0.336,0.925-0.336c0.21,0,1.583,0.294,1.583,0.742c0,0.112-0.168,0.589-0.196,0.7
		c-0.154,0.532-0.182,2.144-0.196,2.829c1.429,0.225,2.844,0.841,3.614,1.514c0.252,0.224,0.42,0.574,0.42,0.938
		C83.743,35.445,83.463,35.571,83.295,35.571z"/>
	<path d="M91.622,34.563c-0.308,0-0.448-0.322-0.603-0.672c-0.182-0.393-0.56-1.022-1.022-1.513c0.925,0.14,2.031,0.896,2.031,1.667
		C92.028,34.324,91.888,34.563,91.622,34.563z M97.393,33.148c-0.084,0.098-0.658,1.33-0.784,1.568
		c-2.017,3.797-4.511,4.455-5.491,4.721l-0.028-0.141c4.202-1.961,5.407-6.443,5.407-6.639c0-0.336-0.56-0.658-0.742-0.757
		c0.182-0.042,0.364-0.098,0.616-0.098c0.602,0,1.317,0.742,1.317,0.91C97.688,32.813,97.659,32.854,97.393,33.148z M94.031,33.961
		c-0.294,0-0.336-0.127-0.574-0.771c-0.182-0.519-0.519-1.022-0.84-1.442c0.952,0.279,1.835,1.064,1.835,1.666
		C94.452,33.709,94.297,33.961,94.031,33.961z"/>
	<path d="M111.799,31.635c-0.252,0.141-0.266,0.169-0.434,0.631c-0.925,2.508-1.807,3.908-3.068,5.07
		c-0.714,0.645-2.213,1.793-3.852,2.172l-0.014-0.098c1.681-0.911,3.334-2.605,4.048-3.586c0.658-0.883,1.611-2.578,2.171-4.749
		c-2.886,0.168-5.421,0.616-5.883,0.813c-0.098,0.042-0.546,0.28-0.645,0.28c-0.126,0-1.121-0.658-1.121-1.569
		c0-0.252,0.056-0.406,0.126-0.546c0.308,0.49,0.77,0.924,1.387,0.924c0.196,0,5.294-0.42,5.967-0.616
		c0.112-0.027,0.49-0.336,0.588-0.336c0.154,0,1.177,0.967,1.177,1.219C112.248,31.383,112.094,31.481,111.799,31.635z
		 M113.102,30.696c-0.729,0-1.317-0.588-1.317-1.33c0-0.729,0.588-1.316,1.317-1.316s1.331,0.588,1.331,1.316
		C114.433,30.108,113.831,30.696,113.102,30.696z M113.088,28.554c-0.448,0-0.798,0.364-0.798,0.799c0,0.447,0.35,0.813,0.798,0.813
		s0.813-0.365,0.813-0.813C113.9,28.918,113.536,28.554,113.088,28.554z"/>
	<path d="M127.536,37.519c-0.896,0-4.917-4.44-4.931-4.468c-0.406-0.463-1.064-1.205-1.429-1.43
		c-0.056-0.042-0.154-0.098-0.308-0.098c-0.462,0-1.148,0.98-1.471,1.443c-0.392,0.56-1.289,1.862-1.443,2.254
		c-0.21,0.561-0.238,0.617-0.49,0.617c-0.35,0-1.457-0.854-1.457-1.766c0-0.14,0.014-0.238,0.056-0.392
		c0.224,0.267,0.588,0.687,0.854,0.687c0.224,0,0.238,0,1.737-1.667c1.569-1.737,1.751-1.933,2.297-1.933
		c0.477,0,0.84,0.266,2.003,1.555c1.134,1.246,2.381,2.395,3.824,3.264c0.756,0.462,1.093,1.064,1.093,1.498
		C127.873,37.379,127.676,37.519,127.536,37.519z M125.883,32.027c-0.729,0-1.331-0.602-1.331-1.331c0-0.729,0.602-1.33,1.331-1.33
		s1.331,0.602,1.331,1.33C127.214,31.426,126.612,32.027,125.883,32.027z M125.883,29.898c-0.448,0-0.798,0.351-0.798,0.798
		c0,0.448,0.35,0.813,0.798,0.813s0.813-0.365,0.813-0.813C126.696,30.249,126.332,29.898,125.883,29.898z"/>
	<path d="M140.416,34.465c-0.126,0-0.462-0.027-0.49-0.027c-0.504-0.043-0.644-0.057-1.583-0.057c-4.272,0-5.533,0.084-6.164,0.252
		c-0.042,0.014-0.49,0.127-0.532,0.127c-0.364,0-1.121-0.896-1.121-1.541c0-0.084,0.014-0.351,0.168-0.673
		c0.477,1.064,0.911,1.064,2.367,1.064c0.967,0,5.519-0.014,6.164-0.168c0.084-0.015,0.49-0.126,0.574-0.126s1.485,0.154,1.485,0.7
		C141.284,34.451,140.584,34.465,140.416,34.465z"/>
	<path d="M148.309,33.947c-0.14,0-0.252-0.07-1.149-0.673c-0.714-0.477-1.443-0.771-2.171-1.051c0.294-0.042,0.588-0.084,1.05-0.084
		c0.14,0,1.345,0,1.947,0.336c0.658,0.364,0.714,0.896,0.714,1.009C148.701,33.807,148.462,33.947,148.309,33.947z M148.687,38.527
		c-0.224,0.154-0.252,0.182-0.49,0.448c-0.112,0.14-0.224,0.267-0.42,0.267c-0.378,0-1.331-0.939-1.331-1.863
		c0-0.112,0.014-0.196,0.042-0.365c0.14,0.154,0.701,0.827,1.093,0.827c0.168,0,0.322-0.056,0.49-0.154
		c2.283-1.303,4.734-3.376,7.172-6.275l0.098,0.07C153.659,34.619,151.6,36.566,148.687,38.527z M149.527,30.879
		c-0.182,0-0.252-0.057-0.924-0.616c-0.896-0.742-1.597-1.064-2.115-1.303c0.266-0.042,0.378-0.057,0.645-0.057
		c0.084,0,2.773,0.029,2.773,1.514C149.905,30.809,149.625,30.879,149.527,30.879z M154.486,30.963
		c-0.168,0-0.182-0.014-0.701-0.589c-0.42-0.461-0.882-0.867-1.4-1.189c0.882,0.014,2.437,0.406,2.437,1.344
		C154.822,30.837,154.626,30.963,154.486,30.963z M155.676,29.675c-0.154,0-0.196-0.057-0.658-0.505
		c-0.434-0.42-0.938-0.771-1.527-1.036c0.182-0.014,0.28-0.028,0.406-0.028c0.56,0,2.143,0.238,2.143,1.163
		C156.041,29.548,155.831,29.675,155.676,29.675z"/>
</g>
<g>
	<path d="M553.557,29.702c0-1.289-0.125-1.666-0.307-2.115l1.539,0.295c0.113,0.027,0.225,0.069,0.225,0.209
		c0,0.099-0.041,0.127-0.461,0.463c0,0.057-0.016,0.799-0.016,1.148h3.586l0.604-0.672c0.07-0.084,0.139-0.183,0.209-0.183
		c0.113,0,0.168,0.07,0.268,0.154l0.813,0.673c0.068,0.069,0.139,0.111,0.139,0.224c0,0.126-0.125,0.14-0.209,0.14h-9.666
		c0,0.519,0.014,2.788,0.014,3.25c0,1.905-0.322,5.112-2.395,6.962l-0.084-0.084c1.26-2.409,1.512-4.104,1.512-7.354
		c0-1.766-0.055-2.858-0.279-3.796l1.344,0.686H553.557z M557.508,32.561l0.588-0.673c0.098-0.112,0.154-0.169,0.225-0.169
		c0.111,0,0.154,0.057,0.266,0.154l0.77,0.673c0.057,0.042,0.127,0.112,0.127,0.21c0,0.126-0.111,0.141-0.211,0.141h-4.131
		c0,0.42-0.014,2.381,0,2.661h2.283l0.42-0.505c0.084-0.098,0.141-0.168,0.209-0.168c0.07,0,0.154,0.07,0.254,0.141l0.574,0.42
		c0.125,0.098,0.195,0.154,0.195,0.225c0,0.098-0.057,0.125-0.49,0.462c0.014,0.868,0.014,2.157,0.057,2.983
		c0,0.098,0.041,0.561,0.041,0.658c0,0.379-0.309,0.645-0.645,0.645c-0.363,0-0.377-0.154-0.391-0.631h-5.113
		c0,0.393-0.014,0.771-0.688,0.771c-0.139,0-0.377-0.028-0.377-0.351c0-0.042,0.014-0.126,0.027-0.21
		c0.07-0.603,0.07-2.018,0.07-2.998c0-0.686,0-1.092-0.127-2.129l1.219,0.687h1.541c-0.014-0.477-0.027-2.605-0.041-3.04
		c-0.07-1.568-0.141-1.75-0.252-2.03l1.387,0.308c0.125,0.027,0.266,0.07,0.266,0.21s-0.238,0.294-0.42,0.406v1.149H557.508z
		 M552.549,35.894v3.558h5.084v-3.558H552.549z"/>
	<path d="M566.73,31.047c-0.377,0-0.504-0.252-0.84-0.925c-0.084-0.182-0.336-0.602-0.84-1.105
		c-1.625,2.521-2.719,3.361-3.629,3.936l-0.057-0.084c1.486-1.569,2.635-3.936,2.873-4.566c0.111-0.295,0.125-0.477,0.152-0.771
		l1.164,0.7c0.098,0.057,0.154,0.141,0.154,0.238c0,0.168-0.141,0.196-0.477,0.252c-0.029,0.042-0.043,0.07-0.084,0.126
		c0.545,0.169,2.115,0.715,2.115,1.64C567.264,30.711,567.15,31.047,566.73,31.047z M567.066,34.773h-3.543
		c-0.35,0-1.023,0-1.652,0.125l-0.281-0.56c0.967,0.084,1.961,0.099,2.158,0.099h0.518l0.014-1.541c-0.49,0-0.994,0.027-1.484,0.125
		l-0.266-0.56c0.293,0.028,0.813,0.069,1.75,0.084c-0.014-0.532-0.027-1.233-0.182-1.639l1.232,0.321
		c0.07,0.015,0.238,0.07,0.238,0.211c0,0.111-0.084,0.168-0.406,0.378c0,0.056,0,0.645-0.014,0.743h0.461l0.295-0.406
		c0.043-0.057,0.111-0.169,0.211-0.169c0.055,0,0.168,0.056,0.266,0.154l0.406,0.392c0.07,0.07,0.141,0.141,0.141,0.211
		c0,0.126-0.113,0.154-0.211,0.154h-1.568l0.014,1.541h0.701l0.279-0.421c0.057-0.084,0.127-0.183,0.195-0.183
		c0.07,0,0.184,0.07,0.268,0.141l0.531,0.434c0.057,0.043,0.141,0.113,0.141,0.211C567.277,34.745,567.166,34.773,567.066,34.773z
		 M566.66,36.607c0,0.154,0.07,2.746,0.07,2.844c0,0.141,0,0.658-0.588,0.658c-0.434,0-0.42-0.224-0.406-0.91h-2.115
		c0,0.07,0.014,0.406,0.014,0.477c0,0.477-0.434,0.561-0.615,0.561c-0.252,0-0.406-0.098-0.406-0.351
		c0-0.153,0.041-0.813,0.041-0.938c0.029-0.729,0.029-1.484,0.029-2.045c0-0.967-0.016-1.135-0.1-1.541l1.164,0.645h1.82
		l0.379-0.393c0.055-0.07,0.139-0.14,0.209-0.14c0.057,0,0.141,0.069,0.182,0.098l0.547,0.421c0.127,0.098,0.168,0.14,0.168,0.224
		C567.053,36.314,567.025,36.342,566.66,36.607z M565.736,36.342h-2.115v2.521h2.115V36.342z M574.1,29.982h-3.236v1.597h1.471
		l0.363-0.351c0.084-0.084,0.168-0.14,0.238-0.14c0.057,0,0.141,0.056,0.225,0.112l0.561,0.393c0.111,0.084,0.154,0.14,0.154,0.21
		c0,0.084-0.043,0.126-0.449,0.448c-0.014,0.294-0.027,0.672-0.027,1.358c0,0.798,0.084,4.3,0.084,5.015c0,0.42,0,1.471-1.443,1.611
		c-0.139-0.715-0.477-1.107-0.826-1.316v-0.07c0.225,0.014,0.49,0.041,0.869,0.041c0.195,0,0.377,0,0.42-0.209
		c0.027-0.154,0.014-2.018,0.014-2.326h-1.625c0,0.911,0.029,2.367,0.029,3.278c0,0.267,0,0.771-0.674,0.771
		c-0.252,0-0.35-0.154-0.35-0.364c0-0.574,0.057-3.151,0.057-3.685h-1.316c0,0.406,0.014,3.025,0.014,3.348
		c0,0.154-0.014,0.561-0.588,0.561c-0.393,0-0.393-0.266-0.393-0.406c0-0.294,0.055-1.568,0.055-1.82
		c0.057-2.773,0.043-4.371,0.043-4.707c0-1.457-0.027-1.877-0.098-2.354l1.135,0.603h1.176v-1.597h-0.658
		c-0.266,0-0.98,0.015-1.652,0.14l-0.281-0.56c0.869,0.069,1.738,0.084,2.158,0.084h0.434c0-1.345-0.057-1.556-0.252-2.017
		l1.373,0.363c0.084,0.028,0.209,0.07,0.209,0.196s-0.041,0.154-0.42,0.351c-0.014,0.363-0.014,0.406-0.027,1.106h1.918l0.422-0.546
		c0.068-0.084,0.139-0.183,0.209-0.183c0.098,0,0.182,0.099,0.252,0.168l0.504,0.546c0.084,0.084,0.141,0.141,0.141,0.211
		C574.309,29.968,574.197,29.982,574.1,29.982z M568.637,31.916v1.862h1.33l0.014-1.862H568.637z M568.637,34.115v1.904h1.316
		l0.014-1.904H568.637z M572.516,31.916h-1.652v1.862h1.652V31.916z M572.516,34.115h-1.652l0.027,1.904h1.625V34.115z
		 M572.516,29.269c-0.238,0-0.293-0.084-0.588-0.49c-0.168-0.225-0.365-0.449-0.588-0.589V28.12
		c0.168-0.029,0.293-0.043,0.518-0.043c0.49,0,1.135,0.127,1.135,0.673C572.992,29.03,572.797,29.269,572.516,29.269z"/>
	<path d="M580.422,30.963h-1.693v1.695c0.084,0.027,1.639,0.406,1.639,1.33c0,0.225-0.113,0.533-0.477,0.533
		c-0.35,0-0.477-0.225-0.645-0.658c-0.309-0.758-0.336-0.842-0.518-1.023c0,1.345,0,1.555,0.014,2.228
		c0.014,1.303,0.07,3.376,0.07,4.665c0,0.63-0.422,0.714-0.688,0.714c-0.141,0-0.42-0.042-0.42-0.378
		c0-0.07,0.043-0.463,0.043-0.505c0.139-2.073,0.152-4.16,0.182-6.247c-0.463,1.135-1.121,2.76-2.451,3.895l-0.084-0.043
		c1.4-2.451,2.227-5.449,2.367-6.205c-0.91,0-1.387,0.057-1.752,0.126l-0.279-0.561c0.854,0.07,1.709,0.099,2.199,0.099
		c-0.07-1.667-0.168-2.087-0.379-3.054l1.4,0.406c0.07,0.027,0.268,0.084,0.268,0.21c0,0.14-0.225,0.267-0.477,0.378v2.06h0.631
		l0.35-0.477c0.098-0.126,0.154-0.168,0.238-0.168c0.111,0,0.195,0.099,0.252,0.183l0.293,0.42c0.057,0.084,0.127,0.168,0.127,0.224
		C580.633,30.949,580.506,30.963,580.422,30.963z M587.469,40.236c-0.869-0.449-2.857-1.723-3.334-4.063h-0.057
		c-0.518,2.311-2.367,3.838-4.775,4.188l-0.029-0.099c2.424-0.883,3.545-2.787,3.838-4.09h-1.33c0,0.336,0,0.729-0.645,0.729
		c-0.209,0-0.336-0.07-0.336-0.504c0-0.309,0.057-1.695,0.057-1.976c0-0.673-0.043-1.009-0.113-1.526l1.135,0.602h1.484
		c0.016-0.813,0-1.33,0-1.582c-0.574,0-0.896,0.014-1.287,0.084l-0.184-0.49c0.617,0.056,1.248,0.069,1.514,0.069h1.064l0.336-0.42
		c0.07-0.084,0.127-0.168,0.225-0.168s0.182,0.098,0.252,0.153l0.434,0.393c0.07,0.07,0.154,0.141,0.154,0.225
		c0,0.126-0.084,0.154-0.209,0.154h-1.332v1.582h1.555l0.352-0.434c0.055-0.07,0.084-0.112,0.168-0.112
		c0.07,0,0.141,0.056,0.209,0.099l0.604,0.434c0.055,0.042,0.111,0.112,0.111,0.182c0,0.112-0.168,0.238-0.406,0.406
		c0,0.336,0.043,1.821,0.043,2.115c0,0.238-0.07,0.631-0.574,0.631c-0.422,0-0.422-0.238-0.422-0.645h-1.596
		c0.547,1.037,1.135,1.736,2.367,2.325c0.238,0.112,1.051,0.505,2.088,0.63v0.07C588.561,39.297,587.902,39.535,587.469,40.236z
		 M587.721,32.392c-1.219-0.574-3.025-2.605-3.488-3.964h-0.195c-1.373,2.255-2.367,3.376-4.244,4.426l-0.07-0.084
		c2.283-2.017,3.277-4.44,3.473-5.435l1.275,0.631c0.084,0.041,0.154,0.098,0.154,0.195c0,0.112-0.057,0.196-0.141,0.225
		c1.262,1.961,3.377,2.829,4.512,2.956v0.098C588.238,31.733,588.168,31.832,587.721,32.392z M581.781,33.834v2.004h1.4
		c0.098-0.603,0.141-1.232,0.168-2.004H581.781z M585.969,33.834h-1.652c-0.027,1.064-0.111,1.625-0.182,2.004h1.834V33.834z"/>
	<path d="M601.371,32.322c-0.225,0.111-1.08,0.546-1.318,0.645l-0.068-0.043c0.209-0.42,0.406-0.854,0.518-1.289h-4.832l0.588,0.406
		c0.084,0.057,0.111,0.127,0.111,0.197c0,0.14-0.098,0.237-0.561,0.322c-0.658,0.63-0.84,0.783-1.387,1.162
		c0.406,0.279,0.645,0.658,0.645,0.938c0,0.252-0.209,0.532-0.518,0.532c-0.322,0-0.449-0.196-0.799-0.715
		c-0.279-0.42-0.729-0.91-1.219-1.246v-0.07c0.926,0.084,1.332,0.238,1.709,0.448c0.057-0.069,0.688-1.148,0.84-1.976h-3.6
		c0,1.514-0.91,2.06-1.373,2.06c-0.35,0-0.531-0.308-0.531-0.532c0-0.336,0.225-0.518,0.826-0.98
		c0.477-0.364,0.729-0.756,0.883-1.414h0.098c0.043,0.195,0.057,0.321,0.084,0.531h4.006c0-0.168,0-1.456-0.014-1.652h-2.928
		c-0.141,0-1.008,0-1.652,0.126l-0.281-0.561c0.939,0.084,1.906,0.098,2.158,0.098h2.703c-0.057-1.148-0.125-1.344-0.322-1.807
		l1.457,0.379c0.168,0.041,0.309,0.084,0.309,0.238c0,0.153-0.084,0.209-0.42,0.406v0.783h3.053l0.49-0.699
		c0.057-0.084,0.113-0.169,0.211-0.169c0.084,0,0.182,0.085,0.252,0.14l0.756,0.701c0.084,0.07,0.141,0.126,0.141,0.21
		c0,0.14-0.127,0.154-0.211,0.154h-4.707c0,0.224,0.016,1.568,0.016,1.652h4.02l0.322-0.238c0.057-0.041,0.195-0.153,0.266-0.153
		c0.084,0,0.141,0.042,0.295,0.168l0.742,0.63c0.084,0.07,0.154,0.154,0.154,0.28C602.281,32.308,601.762,32.308,601.371,32.322z
		 M593.975,38.191c-1.008,0.756-2.213,1.372-3.74,1.666l-0.014-0.07c1.289-0.602,2.914-1.975,3.152-2.801l1.078,0.715
		c0.084,0.056,0.139,0.125,0.139,0.238C594.59,38.107,594.535,38.121,593.975,38.191z M600.348,36.846
		c-0.336,0-0.477-0.182-0.756-0.602c-0.238-0.336-0.295-0.406-0.393-0.533l-2.816,0.547c0.016,0.28,0.016,1.527,0.016,1.779
		c0,0.14,0.041,1.681,0.041,1.75c0,0.505-0.42,0.645-0.699,0.645c-0.281,0-0.379-0.209-0.379-0.378v-0.126
		c0.057-0.532,0.057-1.289,0.057-1.568v-1.934c-2.172,0.406-3.096,0.477-3.754,0.519c-0.084,0.267-0.17,0.42-0.309,0.42
		c-0.127,0-0.182-0.126-0.225-0.21l-0.574-1.316c0.35,0.098,0.574,0.154,0.98,0.154c0.463,0,1.4,0,3.193-0.112
		c0.939-0.854,1.975-2.255,2.199-2.62c0.168-0.279,0.238-0.518,0.322-0.784l1.107,0.743c0.084,0.056,0.139,0.125,0.139,0.209
		c0,0.197-0.35,0.253-0.559,0.295c-0.617,0.504-2.199,1.709-2.873,2.129c2.256-0.168,2.719-0.21,3.922-0.378
		c-0.504-0.575-0.783-0.757-1.049-0.938l0.041-0.07c0.379,0.084,2.885,0.631,2.885,1.807
		C600.865,36.58,600.656,36.846,600.348,36.846z M600.811,39.578c-0.365,0-0.49-0.141-1.262-0.995
		c-0.756-0.841-1.387-1.19-1.693-1.358l0.041-0.057c2.242,0.225,3.445,1.232,3.445,1.892
		C601.342,39.34,601.133,39.578,600.811,39.578z"/>
</g>
<g>
	<path d="M535.854,20.37v-0.413h0.193c0.533,0,0.92-0.108,1.156-0.325c0.238-0.217,0.355-0.571,0.355-1.063v-8.385
		c0-0.492-0.119-0.85-0.359-1.072s-0.625-0.334-1.152-0.334h-0.193V8.364h4.096c1.969,0,3.432,0.287,4.387,0.861
		s1.432,1.45,1.432,2.628c0,0.727-0.211,1.348-0.637,1.863c-0.424,0.516-1.053,0.914-1.885,1.195l1.15,1.837
		c0.773,1.23,1.406,2.108,1.895,2.632c0.49,0.524,0.934,0.813,1.332,0.866l-0.035,0.378h-0.256c-0.604,0-1.16-0.123-1.674-0.369
		c-0.512-0.246-0.975-0.609-1.385-1.09c-0.48-0.58-0.965-1.291-1.453-2.131c-0.49-0.841-0.797-1.337-0.92-1.49
		c-0.047-0.053-0.113-0.092-0.201-0.119s-0.203-0.04-0.344-0.04c-0.105,0-0.322,0.006-0.654,0.018
		c-0.33,0.012-0.605,0.018-0.822,0.018c-0.07,0-0.176-0.003-0.316-0.009s-0.248-0.009-0.324-0.009v3.164
		c0,0.486,0.115,0.839,0.348,1.059c0.23,0.22,0.598,0.33,1.102,0.33h0.256v0.413H535.854z M539.238,15.026h1.379
		c1.002,0,1.785-0.265,2.348-0.795s0.844-1.261,0.844-2.193c0-1.008-0.291-1.78-0.871-2.316s-1.406-0.804-2.479-0.804
		c-0.059,0-0.17-0.003-0.338-0.009c-0.166-0.006-0.307-0.009-0.418-0.009c-0.123,0-0.217,0.001-0.281,0.004
		s-0.125,0.007-0.184,0.013V15.026z"/>
	<path d="M554.768,18.656c-0.521,0.674-1.047,1.17-1.576,1.49c-0.531,0.319-1.09,0.479-1.676,0.479
		c-0.967,0-1.766-0.374-2.398-1.121s-0.949-1.695-0.949-2.843c0-1.207,0.342-2.196,1.027-2.966s1.559-1.156,2.619-1.156
		c1.166,0,2.203,0.814,3.111,2.443c0.012,0.018,0.021,0.032,0.027,0.044v0.343h-5.477c-0.018,0.135-0.029,0.265-0.039,0.391
		c-0.008,0.126-0.014,0.253-0.014,0.382c0,1.043,0.26,1.885,0.779,2.527c0.518,0.642,1.193,0.962,2.025,0.962
		c0.398,0,0.791-0.097,1.178-0.29s0.781-0.492,1.186-0.896L554.768,18.656z M549.564,14.991h3.744
		c-0.076-0.609-0.281-1.093-0.615-1.45s-0.746-0.536-1.238-0.536c-0.48,0-0.887,0.173-1.217,0.519
		C549.906,13.869,549.682,14.358,549.564,14.991z"/>
	<path d="M556.279,18.322h0.361c0.152,0.545,0.408,0.968,0.77,1.27c0.359,0.302,0.791,0.453,1.295,0.453
		c0.48,0,0.873-0.13,1.174-0.391c0.303-0.261,0.453-0.599,0.453-1.015c0-0.498-0.527-1.011-1.582-1.538
		c-0.41-0.199-0.73-0.363-0.959-0.492c-0.504-0.275-0.869-0.573-1.098-0.892s-0.344-0.687-0.344-1.103
		c0-0.598,0.26-1.093,0.779-1.485c0.518-0.393,1.182-0.589,1.99-0.589c0.316,0,0.633,0.034,0.949,0.101s0.645,0.171,0.984,0.312
		v1.644h-0.326c-0.129-0.527-0.348-0.924-0.658-1.191s-0.709-0.4-1.195-0.4c-0.416,0-0.752,0.111-1.006,0.334
		c-0.256,0.223-0.383,0.51-0.383,0.861c0,0.246,0.082,0.485,0.246,0.716s0.375,0.406,0.633,0.523
		c0.082,0.035,0.193,0.085,0.334,0.149c1.857,0.855,2.785,1.734,2.785,2.637c0,0.662-0.234,1.208-0.703,1.639
		s-1.063,0.646-1.783,0.646c-0.381,0-0.785-0.044-1.213-0.132s-0.654-0.132-0.678-0.132c-0.059,0-0.111,0.022-0.158,0.066
		s-0.09,0.11-0.131,0.198l-0.344,0.018L556.279,18.322z"/>
	<path d="M565.174,17.399c0,0.902,0.064,1.479,0.189,1.731c0.127,0.252,0.35,0.378,0.672,0.378c0.188,0,0.398-0.07,0.629-0.211
		c0.232-0.141,0.473-0.349,0.725-0.624l0.264,0.343c-0.293,0.51-0.609,0.899-0.949,1.169s-0.688,0.404-1.045,0.404
		c-0.668,0-1.156-0.259-1.463-0.778c-0.309-0.519-0.463-1.346-0.463-2.483v-3.656h-1.063v-0.448c0.527-0.129,0.975-0.394,1.34-0.795
		c0.367-0.401,0.635-0.921,0.805-1.56h0.359v1.925h2.285v0.879h-2.285V17.399z"/>
	<path d="M572.215,19.474c-0.352,0.375-0.707,0.655-1.068,0.839c-0.359,0.185-0.736,0.277-1.129,0.277
		c-0.533,0-0.951-0.139-1.252-0.417c-0.303-0.278-0.453-0.664-0.453-1.156c0-0.322,0.084-0.611,0.254-0.866s0.408-0.444,0.713-0.567
		c0.082-0.035,0.457-0.17,1.125-0.404s1.271-0.472,1.811-0.712v-1.371c0-0.715-0.104-1.214-0.309-1.499s-0.553-0.426-1.045-0.426
		c-0.34,0-0.604,0.088-0.791,0.264s-0.281,0.422-0.281,0.738c0,0.076,0,0.132,0,0.167s0.002,0.07,0.008,0.105l-1.326,0.545v-0.079
		c0-0.586,0.299-1.125,0.896-1.617s1.26-0.738,1.986-0.738c0.281,0,0.551,0.044,0.809,0.132s0.486,0.214,0.686,0.378
		c0.264,0.217,0.449,0.457,0.559,0.721c0.107,0.264,0.162,0.718,0.162,1.362v0.141v3.278c0,0.434,0.035,0.71,0.105,0.831
		s0.195,0.18,0.377,0.18c0.123,0,0.258-0.028,0.4-0.083c0.145-0.056,0.309-0.142,0.496-0.259l0.098,0.272
		c-0.404,0.381-0.752,0.659-1.041,0.835c-0.291,0.176-0.551,0.264-0.779,0.264c-0.287,0-0.518-0.1-0.693-0.299
		S572.25,19.831,572.215,19.474z M572.215,16.881c-0.51,0.275-1.088,0.545-1.732,0.809c-0.188,0.076-0.311,0.129-0.369,0.158
		c-0.17,0.088-0.303,0.218-0.398,0.391c-0.098,0.173-0.146,0.368-0.146,0.584c0,0.299,0.098,0.548,0.291,0.747
		s0.434,0.299,0.721,0.299c0.229,0,0.479-0.066,0.752-0.198c0.271-0.132,0.566-0.33,0.883-0.593V16.881z"/>
	<path d="M583.535,18.445c0,0.305,0.063,0.516,0.189,0.633c0.125,0.117,0.428,0.243,0.908,0.378l0.018,0.316l-2.391,0.87h-0.141
		v-1.354c-0.762,0.475-1.408,0.819-1.941,1.033s-1.002,0.321-1.406,0.321c-0.715,0-1.217-0.226-1.508-0.677
		c-0.289-0.451-0.436-1.283-0.436-2.496v-3.023c0-0.287-0.07-0.495-0.211-0.624s-0.447-0.255-0.922-0.378v-0.343l2.408-0.756h0.123
		v4.816c0,1.16,0.102,1.904,0.303,2.232c0.203,0.328,0.564,0.492,1.086,0.492c0.281,0,0.619-0.085,1.016-0.255
		c0.395-0.17,0.891-0.445,1.488-0.826v-4.359c0-0.346-0.094-0.583-0.285-0.712c-0.189-0.129-0.617-0.226-1.279-0.29l-0.008-0.343
		l2.848-0.756h0.141V18.445z"/>
	<path d="M586.875,14.446c0-0.287-0.07-0.495-0.211-0.624s-0.449-0.255-0.924-0.378v-0.343l2.408-0.756h0.123v1.89l0.756-0.94
		c0.041-0.047,0.098-0.117,0.168-0.211c0.264-0.34,0.504-0.51,0.721-0.51c0.158,0,0.432,0.07,0.822,0.211
		c0.389,0.141,0.719,0.217,0.988,0.229l-0.484,1.16h-0.035c-0.199,0-0.48-0.081-0.844-0.242s-0.633-0.242-0.809-0.242
		c-0.129,0-0.246,0.034-0.352,0.101s-0.264,0.227-0.475,0.479l-0.457,0.536v4.052c0,0.439,0.082,0.737,0.246,0.892
		s0.461,0.236,0.889,0.242v0.378h-3.666v-0.378c0.434-0.012,0.732-0.094,0.893-0.246c0.162-0.152,0.242-0.448,0.242-0.888V14.446z"
		/>
	<path d="M596.287,19.474c-0.352,0.375-0.707,0.655-1.066,0.839c-0.361,0.185-0.738,0.277-1.131,0.277
		c-0.533,0-0.949-0.139-1.252-0.417c-0.301-0.278-0.453-0.664-0.453-1.156c0-0.322,0.086-0.611,0.256-0.866s0.406-0.444,0.711-0.567
		c0.082-0.035,0.457-0.17,1.125-0.404s1.271-0.472,1.811-0.712v-1.371c0-0.715-0.102-1.214-0.307-1.499s-0.555-0.426-1.047-0.426
		c-0.34,0-0.604,0.088-0.791,0.264s-0.281,0.422-0.281,0.738c0,0.076,0,0.132,0,0.167s0.004,0.07,0.01,0.105l-1.328,0.545v-0.079
		c0-0.586,0.299-1.125,0.896-1.617s1.26-0.738,1.986-0.738c0.281,0,0.551,0.044,0.809,0.132s0.486,0.214,0.686,0.378
		c0.264,0.217,0.451,0.457,0.559,0.721c0.109,0.264,0.162,0.718,0.162,1.362v0.141v3.278c0,0.434,0.035,0.71,0.105,0.831
		s0.197,0.18,0.379,0.18c0.123,0,0.256-0.028,0.4-0.083c0.143-0.056,0.309-0.142,0.496-0.259l0.096,0.272
		c-0.404,0.381-0.75,0.659-1.041,0.835c-0.289,0.176-0.549,0.264-0.777,0.264c-0.287,0-0.52-0.1-0.695-0.299
		S596.322,19.831,596.287,19.474z M596.287,16.881c-0.51,0.275-1.086,0.545-1.73,0.809c-0.188,0.076-0.311,0.129-0.369,0.158
		c-0.17,0.088-0.303,0.218-0.4,0.391c-0.096,0.173-0.145,0.368-0.145,0.584c0,0.299,0.096,0.548,0.289,0.747
		s0.434,0.299,0.721,0.299c0.229,0,0.48-0.066,0.752-0.198c0.273-0.132,0.566-0.33,0.883-0.593V16.881z"/>
	<path d="M606.193,16.424c0-0.076,0.002-0.188,0.008-0.334s0.01-0.255,0.01-0.325c0-0.973-0.105-1.639-0.316-2
		s-0.574-0.541-1.09-0.541c-0.275,0-0.611,0.085-1.006,0.255c-0.396,0.17-0.896,0.445-1.5,0.826v4.553
		c0,0.439,0.08,0.735,0.238,0.888s0.457,0.234,0.896,0.246v0.378h-3.666v-0.378c0.434-0.012,0.732-0.094,0.893-0.246
		c0.162-0.152,0.242-0.448,0.242-0.888v-4.412c0-0.287-0.07-0.495-0.211-0.624s-0.449-0.255-0.924-0.378v-0.343l2.408-0.756h0.123
		v1.477c0.768-0.48,1.414-0.826,1.939-1.037c0.523-0.211,0.988-0.316,1.393-0.316c0.727,0,1.242,0.221,1.547,0.664
		s0.457,1.217,0.457,2.325c0,0.24-0.002,0.423-0.004,0.549c-0.004,0.126-0.012,0.25-0.023,0.374l-0.07,1.503
		c0,0.059-0.002,0.141-0.008,0.246c-0.018,0.369-0.027,0.624-0.027,0.765c0,0.445,0.098,0.738,0.291,0.879s0.557,0.214,1.09,0.22
		l0.008,0.378h-4.086v-0.378h0.088c0.457,0,0.773-0.144,0.949-0.431s0.281-0.902,0.316-1.846L606.193,16.424z"/>
	<path d="M612.188,17.399c0,0.902,0.063,1.479,0.189,1.731c0.125,0.252,0.35,0.378,0.672,0.378c0.188,0,0.396-0.07,0.629-0.211
		c0.23-0.141,0.473-0.349,0.725-0.624l0.264,0.343c-0.293,0.51-0.609,0.899-0.949,1.169s-0.689,0.404-1.047,0.404
		c-0.668,0-1.154-0.259-1.463-0.778c-0.307-0.519-0.461-1.346-0.461-2.483v-3.656h-1.064v-0.448
		c0.527-0.129,0.975-0.394,1.342-0.795c0.365-0.401,0.633-0.921,0.803-1.56h0.361v1.925h2.285v0.879h-2.285V17.399z"/>
</g>
<g>
	<path d="M765.773,35.502c-0.225,0-0.967,0-1.639,0.125l-0.279-0.56c1.021,0.084,1.904,0.098,2.156,0.098h0.547
		c0-0.826-0.014-1.442-0.127-2.017l1.275,0.35c0.111,0.028,0.195,0.099,0.195,0.196c0,0.099-0.07,0.196-0.434,0.378
		c-0.027,0.309-0.043,0.547-0.057,1.093h1.148l0.477-0.504c0.113-0.112,0.182-0.183,0.238-0.183c0.084,0,0.197,0.084,0.266,0.141
		l0.631,0.518c0.07,0.057,0.141,0.127,0.141,0.211c0,0.126-0.127,0.154-0.225,0.154h-2.676c-0.014,0.125-0.014,0.238-0.014,0.686
		c0.729,0.099,1.947,0.477,1.947,1.346c0,0.392-0.279,0.574-0.518,0.574c-0.338,0-0.477-0.322-0.574-0.561
		c-0.127-0.309-0.352-0.826-0.855-1.191c0,0.547,0.098,2.914,0.098,3.391c0,0.434-0.238,0.602-0.658,0.602
		c-0.309,0-0.434-0.14-0.434-0.392c0-0.183,0.168-2.423,0.168-2.802c0-0.111-0.014-0.672-0.014-0.771
		c-0.533,0.813-1.723,2.13-3.193,2.802l-0.057-0.084c1.4-1.261,2.381-2.844,2.787-3.6H765.773z M768.883,32.784l0.42-0.49
		c0.1-0.112,0.154-0.183,0.211-0.183c0.098,0,0.182,0.098,0.252,0.154l0.574,0.49c0.07,0.057,0.141,0.141,0.141,0.225
		c0,0.125-0.111,0.14-0.211,0.14h-4.637c-0.236,0-0.965,0-1.652,0.126l-0.266-0.546c1.021,0.069,1.918,0.084,2.143,0.084h1.541
		c0.141-0.294,0.813-1.793,0.756-2.886l1.262,0.7c0.098,0.057,0.141,0.127,0.141,0.224c0,0.238-0.295,0.253-0.506,0.267
		c-0.139,0.196-0.854,1.093-1.441,1.695H768.883z M768.576,29.45l0.49-0.532c0.068-0.084,0.168-0.168,0.223-0.168
		c0.084,0,0.168,0.069,0.252,0.14l0.617,0.533c0.084,0.069,0.141,0.125,0.141,0.224c0,0.126-0.113,0.14-0.211,0.14h-3.992
		c-0.238,0-0.967,0-1.652,0.127l-0.266-0.561c0.713,0.07,1.428,0.098,2.143,0.098h0.447c0.016-0.616-0.027-1.246-0.223-1.919
		l1.414,0.378c0.127,0.028,0.211,0.084,0.211,0.196c0,0.14-0.197,0.28-0.477,0.435c0,0.14-0.029,0.714-0.029,0.91H768.576z
		 M765.256,30.137c0.518,0.28,1.555,0.896,1.555,1.709c0,0.378-0.225,0.616-0.518,0.616c-0.379,0-0.547-0.238-0.617-0.798
		c-0.057-0.463-0.127-0.855-0.518-1.458L765.256,30.137z M775.453,28.483c0.057,0.057,0.084,0.112,0.084,0.196
		s-0.07,0.168-0.225,0.168c-0.098,0-0.209-0.028-0.547-0.112c-0.881,0.238-2.59,0.393-2.969,0.406
		c-0.014,0.855-0.027,2.241-0.041,3.181h2.871l0.518-0.658c0.057-0.085,0.141-0.183,0.238-0.183c0.043,0,0.168,0.069,0.252,0.153
		l0.729,0.645c0.07,0.057,0.141,0.141,0.141,0.225c0,0.141-0.127,0.154-0.211,0.154h-2.115c0,0.883,0.07,4.566,0.07,4.65
		c0,0.378,0.07,2.031,0.07,2.409c0,0.448-0.42,0.645-0.756,0.645s-0.379-0.183-0.379-0.364c0-0.084,0-0.238,0.014-0.406
		c0.057-1.121,0.098-3.277,0.098-5.533c0-0.42-0.014-0.924-0.027-1.4h-1.512c-0.029,3.277-0.49,5.742-3.223,7.34l-0.084-0.084
		c1.766-1.821,2.395-3.334,2.395-8.377c0-0.854-0.014-2.563-0.223-3.292l1.246,0.603c0.463-0.126,1.934-0.56,2.535-1.316
		L775.453,28.483z"/>
	<path d="M790,39.773c-0.352,0.168-0.799,0.211-1.57,0.211c-1.596,0-2.184-0.028-2.184-1.107c0-0.447,0.014-2.591,0.014-3.082
		h-1.316l1.021,0.645c0.127,0.084,0.168,0.113,0.168,0.225c0,0.112-0.098,0.154-0.154,0.168c-0.07,0.028-0.336,0.098-0.377,0.126
		c-1.219,2.003-2.76,2.914-5.113,3.25l-0.014-0.099c1.82-0.602,3.404-1.82,4.201-3.557c0.141-0.309,0.154-0.421,0.184-0.758h-0.084
		c0.014,0.337-0.309,0.589-0.631,0.589c-0.352,0-0.352-0.28-0.352-0.378c0-0.35,0.029-1.905,0.029-2.228
		c-0.043,0.056-0.113,0.056-0.182,0.056h-2.34c-0.043,0.911-0.111,1.457-0.154,1.709c0.447,0.154,2.199,0.799,2.199,1.808
		c0,0.28-0.195,0.56-0.504,0.56c-0.393,0-0.547-0.308-0.771-0.77c-0.098-0.211-0.561-1.009-0.951-1.4
		c-0.309,1.848-1.402,3.473-3.447,4.439l-0.014-0.056c2.424-2.199,2.535-4.259,2.662-6.29h-0.771c-0.35,0-1.021,0.015-1.652,0.127
		l-0.279-0.561c0.967,0.084,1.961,0.098,2.156,0.098h0.561c0.014-0.168,0.057-2.395,0.057-2.451h-0.463
		c-0.35,0-1.023,0.014-1.652,0.141l-0.268-0.561c0.953,0.084,1.947,0.084,2.145,0.084h0.252c0.027-1.961-0.07-2.312-0.295-3.026
		l1.555,0.49c0.113,0.029,0.184,0.057,0.184,0.169c0,0.153-0.043,0.183-0.463,0.435c0,0.125,0,0.308-0.014,1.933h0.588l0.336-0.462
		c0.027-0.043,0.127-0.168,0.211-0.168s0.125,0.041,0.266,0.153l0.561,0.462c0.055,0.057,0.141,0.112,0.141,0.211
		c0,0.126-0.127,0.14-0.225,0.14h-1.877c0,0.225-0.057,2.41-0.057,2.451h0.715l0.42-0.561c0.084-0.111,0.154-0.195,0.238-0.195
		s0.182,0.084,0.266,0.154l0.756,0.574c0.043,0.041,0.084,0.07,0.113,0.111c0.027-3.628,0.027-3.726,0-4.622
		c-0.014-0.182-0.098-0.658-0.154-1.037l1.191,0.574h2.814l0.393-0.406c0.098-0.098,0.125-0.125,0.182-0.125
		c0.07,0,0.168,0.098,0.225,0.14l0.658,0.505c0.057,0.041,0.127,0.098,0.127,0.224c0,0.112-0.086,0.183-0.17,0.237
		c-0.125,0.099-0.168,0.127-0.307,0.238c-0.016,0.337-0.016,0.658-0.016,1.01c0.016,0.84,0.127,4.594,0.127,5.364
		c0,0.141,0,0.336-0.211,0.477c-0.125,0.098-0.35,0.182-0.531,0.182c-0.281,0-0.379-0.141-0.309-0.547h-0.615
		c0,0.436-0.016,2.34-0.016,2.732c0,0.434,0,0.561,1.318,0.561c0.713,0,0.77,0,1.344-2.074h0.098c0.029,0.688,0.113,1.5,0.477,1.822
		c0.084,0.069,0.127,0.14,0.127,0.237C790.574,39.283,790.377,39.592,790,39.773z M787.855,28.834h-3.066v1.934h3.066V28.834z
		 M787.855,31.104h-3.066v1.961h3.066V31.104z M787.855,33.4h-3.066v2.059h3.066V33.4z"/>
	<path d="M797.557,29.702c0-1.289-0.127-1.666-0.309-2.115l1.541,0.295c0.111,0.027,0.223,0.069,0.223,0.209
		c0,0.099-0.041,0.127-0.461,0.463c0,0.057-0.014,0.799-0.014,1.148h3.586l0.602-0.672c0.07-0.084,0.141-0.183,0.211-0.183
		c0.111,0,0.168,0.07,0.266,0.154l0.813,0.673c0.07,0.069,0.141,0.111,0.141,0.224c0,0.126-0.127,0.14-0.211,0.14h-9.666
		c0,0.519,0.016,2.788,0.016,3.25c0,1.905-0.322,5.112-2.396,6.962l-0.084-0.084c1.262-2.409,1.514-4.104,1.514-7.354
		c0-1.766-0.057-2.858-0.281-3.796l1.346,0.686H797.557z M801.506,32.561l0.588-0.673c0.098-0.112,0.154-0.169,0.225-0.169
		c0.111,0,0.154,0.057,0.266,0.154l0.771,0.673c0.055,0.042,0.125,0.112,0.125,0.21c0,0.126-0.111,0.141-0.209,0.141h-4.133
		c0,0.42-0.014,2.381,0,2.661h2.283l0.42-0.505c0.084-0.098,0.141-0.168,0.211-0.168s0.154,0.07,0.252,0.141l0.574,0.42
		c0.125,0.098,0.195,0.154,0.195,0.225c0,0.098-0.055,0.125-0.49,0.462c0.014,0.868,0.014,2.157,0.057,2.983
		c0,0.098,0.041,0.561,0.041,0.658c0,0.379-0.307,0.645-0.643,0.645c-0.365,0-0.379-0.154-0.393-0.631h-5.113
		c0,0.393-0.014,0.771-0.686,0.771c-0.141,0-0.379-0.028-0.379-0.351c0-0.042,0.014-0.126,0.027-0.21
		c0.07-0.603,0.07-2.018,0.07-2.998c0-0.686,0-1.092-0.125-2.129l1.219,0.687h1.539c-0.014-0.477-0.027-2.605-0.041-3.04
		c-0.07-1.568-0.141-1.75-0.252-2.03l1.387,0.308c0.125,0.027,0.266,0.07,0.266,0.21s-0.238,0.294-0.42,0.406v1.149H801.506z
		 M796.547,35.894v3.558h5.086v-3.558H796.547z"/>
	<path d="M810.729,31.047c-0.377,0-0.504-0.252-0.84-0.925c-0.084-0.182-0.336-0.602-0.84-1.105
		c-1.625,2.521-2.719,3.361-3.629,3.936l-0.055-0.084c1.484-1.569,2.633-3.936,2.871-4.566c0.111-0.295,0.125-0.477,0.154-0.771
		l1.162,0.7c0.098,0.057,0.154,0.141,0.154,0.238c0,0.168-0.141,0.196-0.477,0.252c-0.027,0.042-0.041,0.07-0.084,0.126
		c0.547,0.169,2.115,0.715,2.115,1.64C811.262,30.711,811.15,31.047,810.729,31.047z M811.066,34.773h-3.545
		c-0.35,0-1.021,0-1.652,0.125l-0.281-0.56c0.967,0.084,1.961,0.099,2.158,0.099h0.518l0.014-1.541c-0.49,0-0.994,0.027-1.484,0.125
		l-0.266-0.56c0.293,0.028,0.813,0.069,1.75,0.084c-0.014-0.532-0.027-1.233-0.182-1.639l1.232,0.321
		c0.07,0.015,0.238,0.07,0.238,0.211c0,0.111-0.084,0.168-0.406,0.378c0,0.056,0,0.645-0.014,0.743h0.463l0.293-0.406
		c0.043-0.057,0.113-0.169,0.211-0.169c0.057,0,0.168,0.056,0.266,0.154l0.406,0.392c0.07,0.07,0.141,0.141,0.141,0.211
		c0,0.126-0.113,0.154-0.211,0.154h-1.568l0.014,1.541h0.701l0.279-0.421c0.057-0.084,0.127-0.183,0.197-0.183
		c0.068,0,0.182,0.07,0.266,0.141l0.531,0.434c0.057,0.043,0.141,0.113,0.141,0.211C811.275,34.745,811.164,34.773,811.066,34.773z
		 M810.66,36.607c0,0.154,0.068,2.746,0.068,2.844c0,0.141,0,0.658-0.588,0.658c-0.434,0-0.42-0.224-0.406-0.91h-2.115
		c0,0.07,0.014,0.406,0.014,0.477c0,0.477-0.434,0.561-0.615,0.561c-0.252,0-0.406-0.098-0.406-0.351
		c0-0.153,0.041-0.813,0.041-0.938c0.029-0.729,0.029-1.484,0.029-2.045c0-0.967-0.014-1.135-0.098-1.541l1.162,0.645h1.82
		l0.379-0.393c0.055-0.07,0.141-0.14,0.209-0.14c0.057,0,0.141,0.069,0.184,0.098l0.545,0.421c0.127,0.098,0.168,0.14,0.168,0.224
		C811.051,36.314,811.023,36.342,810.66,36.607z M809.734,36.342h-2.115v2.521h2.115V36.342z M818.098,29.982h-3.236v1.597h1.471
		l0.365-0.351c0.084-0.084,0.168-0.14,0.238-0.14c0.055,0,0.139,0.056,0.223,0.112l0.561,0.393c0.113,0.084,0.154,0.14,0.154,0.21
		c0,0.084-0.041,0.126-0.447,0.448c-0.016,0.294-0.029,0.672-0.029,1.358c0,0.798,0.084,4.3,0.084,5.015c0,0.42,0,1.471-1.441,1.611
		c-0.141-0.715-0.477-1.107-0.828-1.316v-0.07c0.225,0.014,0.49,0.041,0.869,0.041c0.195,0,0.379,0,0.42-0.209
		c0.029-0.154,0.014-2.018,0.014-2.326h-1.625c0,0.911,0.029,2.367,0.029,3.278c0,0.267,0,0.771-0.672,0.771
		c-0.254,0-0.352-0.154-0.352-0.364c0-0.574,0.057-3.151,0.057-3.685h-1.316c0,0.406,0.014,3.025,0.014,3.348
		c0,0.154-0.014,0.561-0.588,0.561c-0.393,0-0.393-0.266-0.393-0.406c0-0.294,0.057-1.568,0.057-1.82
		c0.055-2.773,0.041-4.371,0.041-4.707c0-1.457-0.027-1.877-0.098-2.354l1.135,0.603h1.176v-1.597h-0.658
		c-0.266,0-0.98,0.015-1.652,0.14l-0.281-0.56c0.869,0.069,1.738,0.084,2.158,0.084h0.434c0-1.345-0.055-1.556-0.252-2.017
		l1.373,0.363c0.084,0.028,0.211,0.07,0.211,0.196s-0.043,0.154-0.422,0.351c-0.014,0.363-0.014,0.406-0.027,1.106h1.92l0.42-0.546
		c0.07-0.084,0.141-0.183,0.209-0.183c0.1,0,0.184,0.099,0.252,0.168l0.506,0.546c0.084,0.084,0.139,0.141,0.139,0.211
		C818.307,29.968,818.195,29.982,818.098,29.982z M812.635,31.916v1.862h1.33l0.014-1.862H812.635z M812.635,34.115v1.904h1.316
		l0.014-1.904H812.635z M816.514,31.916h-1.652v1.862h1.652V31.916z M816.514,34.115h-1.652l0.027,1.904h1.625V34.115z
		 M816.514,29.269c-0.238,0-0.293-0.084-0.588-0.49c-0.168-0.225-0.363-0.449-0.588-0.589V28.12
		c0.168-0.029,0.295-0.043,0.518-0.043c0.49,0,1.135,0.127,1.135,0.673C816.99,29.03,816.795,29.269,816.514,29.269z"/>
	<path d="M824.463,28.47l0.477-0.336c0.07-0.057,0.154-0.112,0.225-0.112s0.182,0.069,0.252,0.14l0.561,0.533
		c0.055,0.056,0.154,0.14,0.154,0.252c0,0.195-0.141,0.252-0.52,0.363c-1.246,1.976-3.012,4.749-6.262,5.729l-0.055-0.111
		c2.143-1.331,4.398-3.824,5.35-6.122h-1.344c-0.225,0-0.994,0.014-1.652,0.127l-0.281-0.547c1.107,0.084,2.129,0.084,2.158,0.084
		H824.463z M830.053,39.535l0.658-0.798c0.084-0.099,0.154-0.183,0.225-0.183c0.084,0,0.195,0.112,0.236,0.154l0.855,0.799
		c0.084,0.07,0.141,0.126,0.141,0.225c0,0.125-0.127,0.14-0.211,0.14h-10.1c-0.252,0-0.967,0-1.639,0.126l-0.279-0.547
		c1.021,0.07,1.918,0.084,2.143,0.084h4.455c0.279-0.63,0.531-1.596,0.531-2.072c0-0.154-0.014-0.267-0.027-0.379l1.246,0.645
		c0.084,0.042,0.182,0.126,0.182,0.225c0,0.182-0.195,0.224-0.377,0.266c-0.379,0.463-0.758,0.854-1.275,1.316H830.053z
		 M821.48,29.423c0.406,0.14,1.764,0.644,1.764,1.498c0,0.351-0.225,0.589-0.504,0.589c-0.379,0-0.447-0.225-0.672-0.799
		c-0.322-0.841-0.533-1.051-0.672-1.19L821.48,29.423z M827.924,34.479l0.42-0.434c0.055-0.057,0.125-0.127,0.168-0.127
		c0.07,0,0.141,0.043,0.195,0.084l0.574,0.436c0.07,0.056,0.154,0.14,0.154,0.209c0,0.141-0.084,0.211-0.363,0.421
		c-0.014,0.267,0.027,1.583,0.027,1.891c0,0.519-0.574,0.519-0.617,0.519c-0.279,0-0.391-0.07-0.377-0.406h-4.426
		c-0.016,0.141-0.029,0.504-0.59,0.504c-0.223,0-0.406-0.098-0.406-0.336c0-0.294,0.029-1.736,0.029-2.059
		c0-0.617-0.016-0.869-0.07-1.303l1.162,0.602H827.924z M826.732,32.714l0.49-0.616c0.057-0.07,0.127-0.168,0.211-0.168
		c0.098,0,0.209,0.098,0.252,0.141l0.672,0.615c0.084,0.07,0.141,0.127,0.141,0.211c0,0.14-0.127,0.154-0.211,0.154h-2.857
		c-0.252,0-0.98,0-1.652,0.125l-0.281-0.561c1.023,0.085,1.906,0.099,2.158,0.099H826.732z M828.105,36.734v-1.92h-4.426v1.92
		H828.105z M823.777,37.154c0.477,0.252,1.441,0.756,1.441,1.611c0,0.49-0.35,0.686-0.615,0.686c-0.406,0-0.449-0.336-0.533-0.826
		c-0.139-0.938-0.154-1.037-0.363-1.358L823.777,37.154z M831.131,29.829c0.154,0.111,0.211,0.168,0.211,0.266
		c0,0.168-0.211,0.168-0.322,0.168c-0.084,0-0.154,0-0.295-0.028c-0.518,0.351-1.387,0.869-1.766,1.051
		c1.486,1.261,2.971,1.499,3.727,1.583v0.099c-0.883,0.293-1.275,0.77-1.471,1.035c-3.236-1.61-4.398-4.411-4.932-6.247l0.141-0.07
		c0.295,0.659,0.631,1.303,1.219,2.158c0.688-0.869,1.023-1.373,1.191-1.961l0.938,0.742c0.07,0.056,0.154,0.14,0.154,0.224
		c0,0.196-0.336,0.21-0.49,0.21c-0.447,0.336-0.924,0.658-1.639,0.967c0.42,0.574,0.631,0.771,0.98,1.106
		c0.715-0.757,1.219-1.653,1.4-2.03L831.131,29.829z"/>
	<path d="M837.09,32.098l0.393-0.477c0.127-0.14,0.154-0.195,0.225-0.195c0.084,0,0.141,0.056,0.252,0.168l0.463,0.477
		c0.098,0.098,0.139,0.125,0.139,0.209c0,0.112-0.084,0.154-0.209,0.154h-1.303v1.821h0.545l0.352-0.505
		c0.07-0.111,0.125-0.195,0.209-0.195s0.154,0.07,0.268,0.182l0.518,0.49c0.084,0.07,0.141,0.127,0.141,0.211
		c0,0.125-0.113,0.153-0.211,0.153h-1.82v3.937c0.98-0.196,1.121-0.238,1.428-0.336l0.057,0.125c-0.91,0.49-3.096,1.331-3.781,1.556
		c-0.141,0.308-0.154,0.321-0.281,0.321c-0.098,0-0.168-0.069-0.225-0.153l-0.672-1.149c0.182,0.015,0.252,0.029,0.434,0.029
		c0.604,0,1.219-0.084,2.102-0.225v-4.104h-0.504c-0.125,0-0.994,0-1.639,0.126l-0.279-0.561c0.965,0.084,2.029,0.099,2.143,0.099
		h0.279v-1.821h-0.545c-0.057,0-0.379,0-0.701,0.057l-0.141-0.322c-0.545,0.588-0.924,0.883-1.232,1.12l-0.07-0.056
		c1.248-1.568,2.605-4.553,2.689-4.86c0.098-0.365,0.084-0.547,0.084-0.771l1.219,0.589c0.141,0.07,0.141,0.196,0.141,0.224
		c0,0.141-0.098,0.211-0.42,0.365l-0.014,0.041c0.461,0.07,2.072,0.645,2.072,1.541c0,0.295-0.182,0.532-0.518,0.532
		c-0.352,0-0.42-0.153-0.785-0.812c-0.252-0.463-0.49-0.715-0.854-1.094c-0.785,1.5-1.836,2.662-2.199,3.068
		c0.461,0.028,0.826,0.042,0.91,0.042H837.09z M834.037,35.726c0.35,0.14,1.582,0.784,1.582,1.681c0,0.364-0.195,0.645-0.518,0.645
		c-0.434,0-0.49-0.252-0.645-1.078c-0.127-0.645-0.322-0.925-0.477-1.163L834.037,35.726z M838.912,35.81
		c0.139,0.07,0.223,0.126,0.223,0.224c0,0.113-0.139,0.168-0.434,0.281c-0.098,0.125-0.168,0.195-0.715,0.882
		c-0.182,0.224-0.42,0.477-0.615,0.7l-0.07-0.056c0.195-0.448,0.447-1.526,0.504-2.647L838.912,35.81z M841.979,36.412
		c-0.561,0.7-1.807,1.807-2.283,2.186c-0.055,0.266-0.07,0.35-0.195,0.35c-0.043,0-0.113-0.027-0.197-0.141l-0.77-1.092
		c0.602-0.042,2.451-0.771,3.404-1.415L841.979,36.412z M845.02,32.686l0.336-0.518c0.084-0.127,0.139-0.183,0.223-0.183
		c0.057,0,0.154,0.07,0.238,0.154l0.49,0.505c0.1,0.111,0.141,0.14,0.141,0.224c0,0.14-0.125,0.153-0.209,0.153h-2.887
		c0.07,0.645,0.225,1.443,0.658,2.48c0.477-0.449,0.855-1.051,1.037-1.668l0.91,0.688c0.127,0.098,0.197,0.182,0.197,0.279
		c0,0.238-0.238,0.225-0.365,0.211c-0.561,0.266-1.514,0.588-1.709,0.645c0.588,1.302,1.555,2.408,2.816,2.982l-0.016,0.07
		c-0.307,0.042-0.713,0.127-1.303,0.715c-1.092-1.148-2.24-2.787-2.436-6.402h-0.211c0.014,0.463,0.014,2.536,0.014,2.928
		c0,0.309,0.084,2.578,0.084,2.76c0,0.561-0.057,1.303-1.484,1.709c-0.154-0.658-0.49-1.022-1.205-1.498v-0.043
		c0.406,0.028,0.813,0.057,1.162,0.057c0.506,0,0.574-0.141,0.574-0.561c0-0.854-0.027-4.595-0.027-5.352h-1.176
		c-0.127,0-0.994,0-1.639,0.127l-0.281-0.561c0.967,0.084,2.045,0.098,2.158,0.098h2.311l0.057-1.96h-1.85
		c-0.252,0-0.967,0-1.652,0.126l-0.268-0.562c0.883,0.07,1.752,0.099,2.145,0.099h1.625l0.041-1.555h-2.086
		c-0.352,0-1.023,0-1.654,0.126l-0.266-0.561c0.953,0.084,1.947,0.098,2.143,0.098h1.779l0.336-0.308
		c0.154-0.14,0.184-0.168,0.238-0.168c0.057,0,0.084,0.028,0.182,0.099l0.631,0.447c0.057,0.043,0.127,0.099,0.127,0.196
		c0,0.126-0.084,0.196-0.477,0.448l-0.098,3.474H845.02z M839.5,33.933c0.883,0.294,1.779,0.589,1.779,1.387
		c0,0.392-0.295,0.603-0.561,0.603c-0.365,0-0.436-0.182-0.672-0.841c-0.141-0.378-0.322-0.757-0.59-1.079L839.5,33.933z"/>
</g>
<g>
	<path d="M747.752,18.568c0,0.492,0.117,0.847,0.352,1.063s0.621,0.325,1.16,0.325h0.193v0.413h-4.42v-0.413h0.193
		c0.533,0,0.918-0.108,1.156-0.325c0.236-0.217,0.355-0.571,0.355-1.063V9.946c0-0.428-0.082-0.709-0.246-0.844
		s-0.604-0.255-1.318-0.36V8.364h2.953l8.982,9.536v-7.717c0-0.498-0.121-0.857-0.361-1.077s-0.623-0.33-1.15-0.33h-0.203V8.364
		h4.43v0.413h-0.201c-0.527,0-0.912,0.11-1.152,0.33s-0.359,0.579-0.359,1.077v10.345h-0.537l-9.826-10.38V18.568z"/>
	<path d="M767.607,18.656c-0.521,0.674-1.047,1.17-1.578,1.49c-0.529,0.319-1.088,0.479-1.674,0.479c-0.967,0-1.768-0.374-2.4-1.121
		s-0.949-1.695-0.949-2.843c0-1.207,0.344-2.196,1.029-2.966s1.559-1.156,2.619-1.156c1.166,0,2.203,0.814,3.111,2.443
		c0.012,0.018,0.02,0.032,0.025,0.044v0.343h-5.475c-0.018,0.135-0.031,0.265-0.039,0.391c-0.01,0.126-0.014,0.253-0.014,0.382
		c0,1.043,0.26,1.885,0.777,2.527c0.52,0.642,1.193,0.962,2.025,0.962c0.398,0,0.791-0.097,1.178-0.29s0.783-0.492,1.188-0.896
		L767.607,18.656z M762.404,14.991h3.744c-0.076-0.609-0.281-1.093-0.615-1.45s-0.748-0.536-1.24-0.536
		c-0.48,0-0.885,0.173-1.217,0.519C762.746,13.869,762.521,14.358,762.404,14.991z"/>
	<path d="M772.379,20.59l-2.609-5.748c-0.27-0.592-0.527-1.006-0.773-1.244s-0.549-0.379-0.906-0.426v-0.378h3.762l-0.018,0.369
		c-0.416,0.035-0.705,0.094-0.869,0.176s-0.246,0.211-0.246,0.387c0,0.111,0.014,0.223,0.043,0.334s0.076,0.229,0.141,0.352
		l2.084,4.57l1.836-4.482c-0.17-0.516-0.373-0.861-0.609-1.037c-0.238-0.176-0.621-0.272-1.148-0.29l-0.008-0.378h3.91l-0.025,0.378
		c-0.416,0.041-0.689,0.101-0.822,0.18c-0.131,0.079-0.197,0.209-0.197,0.391c0,0.07,0.012,0.152,0.035,0.246
		s0.059,0.205,0.105,0.334l1.889,4.553l1.82-4.28c0.07-0.176,0.121-0.321,0.154-0.435c0.031-0.114,0.047-0.215,0.047-0.303
		c0-0.223-0.07-0.379-0.211-0.47s-0.477-0.163-1.01-0.215v-0.378h3.182l-0.018,0.378c-0.686,0.158-1.205,0.677-1.557,1.556
		c-0.053,0.135-0.09,0.231-0.113,0.29l-2.33,5.572h-0.5l-2.25-5.273l-2.25,5.273H772.379z"/>
	<path d="M786.67,20.37v-0.413h0.193c0.533,0,0.92-0.108,1.156-0.325c0.238-0.217,0.355-0.571,0.355-1.063v-8.385
		c0-0.492-0.119-0.85-0.359-1.072s-0.625-0.334-1.152-0.334h-0.193V8.364h4.096c1.969,0,3.432,0.287,4.387,0.861
		s1.432,1.45,1.432,2.628c0,0.727-0.211,1.348-0.637,1.863c-0.424,0.516-1.053,0.914-1.885,1.195l1.15,1.837
		c0.773,1.23,1.406,2.108,1.895,2.632c0.49,0.524,0.934,0.813,1.332,0.866l-0.035,0.378h-0.256c-0.604,0-1.16-0.123-1.674-0.369
		c-0.512-0.246-0.975-0.609-1.385-1.09c-0.48-0.58-0.965-1.291-1.453-2.131c-0.49-0.841-0.797-1.337-0.92-1.49
		c-0.047-0.053-0.113-0.092-0.201-0.119s-0.203-0.04-0.344-0.04c-0.105,0-0.322,0.006-0.654,0.018
		c-0.33,0.012-0.605,0.018-0.822,0.018c-0.07,0-0.176-0.003-0.316-0.009s-0.248-0.009-0.324-0.009v3.164
		c0,0.486,0.115,0.839,0.348,1.059c0.23,0.22,0.598,0.33,1.102,0.33h0.256v0.413H786.67z M790.055,15.026h1.379
		c1.002,0,1.785-0.265,2.348-0.795s0.844-1.261,0.844-2.193c0-1.008-0.291-1.78-0.871-2.316s-1.406-0.804-2.479-0.804
		c-0.059,0-0.17-0.003-0.338-0.009c-0.166-0.006-0.307-0.009-0.418-0.009c-0.123,0-0.217,0.001-0.281,0.004
		s-0.125,0.007-0.184,0.013V15.026z"/>
	<path d="M805.584,18.656c-0.521,0.674-1.047,1.17-1.576,1.49c-0.531,0.319-1.09,0.479-1.676,0.479
		c-0.967,0-1.766-0.374-2.398-1.121s-0.949-1.695-0.949-2.843c0-1.207,0.342-2.196,1.027-2.966s1.559-1.156,2.619-1.156
		c1.166,0,2.203,0.814,3.111,2.443c0.012,0.018,0.021,0.032,0.027,0.044v0.343h-5.477c-0.018,0.135-0.029,0.265-0.039,0.391
		c-0.008,0.126-0.014,0.253-0.014,0.382c0,1.043,0.26,1.885,0.779,2.527c0.518,0.642,1.193,0.962,2.025,0.962
		c0.398,0,0.791-0.097,1.178-0.29s0.781-0.492,1.186-0.896L805.584,18.656z M800.381,14.991h3.744
		c-0.076-0.609-0.281-1.093-0.615-1.45s-0.746-0.536-1.238-0.536c-0.48,0-0.887,0.173-1.217,0.519
		C800.723,13.869,800.498,14.358,800.381,14.991z"/>
	<path d="M807.096,18.322h0.361c0.152,0.545,0.408,0.968,0.77,1.27c0.359,0.302,0.791,0.453,1.295,0.453
		c0.48,0,0.873-0.13,1.174-0.391c0.303-0.261,0.453-0.599,0.453-1.015c0-0.498-0.527-1.011-1.582-1.538
		c-0.41-0.199-0.73-0.363-0.959-0.492c-0.504-0.275-0.869-0.573-1.098-0.892s-0.344-0.687-0.344-1.103
		c0-0.598,0.26-1.093,0.779-1.485c0.518-0.393,1.182-0.589,1.99-0.589c0.316,0,0.633,0.034,0.949,0.101s0.645,0.171,0.984,0.312
		v1.644h-0.326c-0.129-0.527-0.348-0.924-0.658-1.191s-0.709-0.4-1.195-0.4c-0.416,0-0.752,0.111-1.006,0.334
		c-0.256,0.223-0.383,0.51-0.383,0.861c0,0.246,0.082,0.485,0.246,0.716s0.375,0.406,0.633,0.523
		c0.082,0.035,0.193,0.085,0.334,0.149c1.857,0.855,2.785,1.734,2.785,2.637c0,0.662-0.234,1.208-0.703,1.639
		s-1.063,0.646-1.783,0.646c-0.381,0-0.785-0.044-1.213-0.132s-0.654-0.132-0.678-0.132c-0.059,0-0.111,0.022-0.158,0.066
		s-0.09,0.11-0.131,0.198l-0.344,0.018L807.096,18.322z"/>
	<path d="M815.99,17.399c0,0.902,0.064,1.479,0.189,1.731c0.127,0.252,0.35,0.378,0.672,0.378c0.188,0,0.398-0.07,0.629-0.211
		c0.232-0.141,0.473-0.349,0.725-0.624l0.264,0.343c-0.293,0.51-0.609,0.899-0.949,1.169s-0.688,0.404-1.045,0.404
		c-0.668,0-1.156-0.259-1.463-0.778c-0.309-0.519-0.463-1.346-0.463-2.483v-3.656h-1.063v-0.448c0.527-0.129,0.975-0.394,1.34-0.795
		c0.367-0.401,0.635-0.921,0.805-1.56h0.359v1.925h2.285v0.879h-2.285V17.399z"/>
	<path d="M823.031,19.474c-0.352,0.375-0.707,0.655-1.068,0.839c-0.359,0.185-0.736,0.277-1.129,0.277
		c-0.533,0-0.951-0.139-1.252-0.417c-0.303-0.278-0.453-0.664-0.453-1.156c0-0.322,0.084-0.611,0.254-0.866s0.408-0.444,0.713-0.567
		c0.082-0.035,0.457-0.17,1.125-0.404s1.271-0.472,1.811-0.712v-1.371c0-0.715-0.104-1.214-0.309-1.499s-0.553-0.426-1.045-0.426
		c-0.34,0-0.604,0.088-0.791,0.264s-0.281,0.422-0.281,0.738c0,0.076,0,0.132,0,0.167s0.002,0.07,0.008,0.105l-1.326,0.545v-0.079
		c0-0.586,0.299-1.125,0.896-1.617s1.26-0.738,1.986-0.738c0.281,0,0.551,0.044,0.809,0.132s0.486,0.214,0.686,0.378
		c0.264,0.217,0.449,0.457,0.559,0.721c0.107,0.264,0.162,0.718,0.162,1.362v0.141v3.278c0,0.434,0.035,0.71,0.105,0.831
		s0.195,0.18,0.377,0.18c0.123,0,0.258-0.028,0.4-0.083c0.145-0.056,0.309-0.142,0.496-0.259l0.098,0.272
		c-0.404,0.381-0.752,0.659-1.041,0.835c-0.291,0.176-0.551,0.264-0.779,0.264c-0.287,0-0.518-0.1-0.693-0.299
		S823.066,19.831,823.031,19.474z M823.031,16.881c-0.51,0.275-1.088,0.545-1.732,0.809c-0.188,0.076-0.311,0.129-0.369,0.158
		c-0.17,0.088-0.303,0.218-0.398,0.391c-0.098,0.173-0.146,0.368-0.146,0.584c0,0.299,0.098,0.548,0.291,0.747
		s0.434,0.299,0.721,0.299c0.229,0,0.479-0.066,0.752-0.198c0.271-0.132,0.566-0.33,0.883-0.593V16.881z"/>
	<path d="M834.352,18.445c0,0.305,0.063,0.516,0.189,0.633c0.125,0.117,0.428,0.243,0.908,0.378l0.018,0.316l-2.391,0.87h-0.141
		v-1.354c-0.762,0.475-1.408,0.819-1.941,1.033s-1.002,0.321-1.406,0.321c-0.715,0-1.217-0.226-1.508-0.677
		c-0.289-0.451-0.436-1.283-0.436-2.496v-3.023c0-0.287-0.07-0.495-0.211-0.624s-0.447-0.255-0.922-0.378v-0.343l2.408-0.756h0.123
		v4.816c0,1.16,0.102,1.904,0.303,2.232c0.203,0.328,0.564,0.492,1.086,0.492c0.281,0,0.619-0.085,1.016-0.255
		c0.395-0.17,0.891-0.445,1.488-0.826v-4.359c0-0.346-0.094-0.583-0.285-0.712c-0.189-0.129-0.617-0.226-1.279-0.29l-0.008-0.343
		l2.848-0.756h0.141V18.445z"/>
	<path d="M837.691,14.446c0-0.287-0.07-0.495-0.211-0.624s-0.449-0.255-0.924-0.378v-0.343l2.408-0.756h0.123v1.89l0.756-0.94
		c0.041-0.047,0.098-0.117,0.168-0.211c0.264-0.34,0.504-0.51,0.721-0.51c0.158,0,0.432,0.07,0.822,0.211
		c0.389,0.141,0.719,0.217,0.988,0.229l-0.484,1.16h-0.035c-0.199,0-0.48-0.081-0.844-0.242s-0.633-0.242-0.809-0.242
		c-0.129,0-0.246,0.034-0.352,0.101s-0.264,0.227-0.475,0.479l-0.457,0.536v4.052c0,0.439,0.082,0.737,0.246,0.892
		s0.461,0.236,0.889,0.242v0.378h-3.666v-0.378c0.434-0.012,0.732-0.094,0.893-0.246c0.162-0.152,0.242-0.448,0.242-0.888V14.446z"
		/>
	<path d="M847.104,19.474c-0.352,0.375-0.707,0.655-1.066,0.839c-0.361,0.185-0.738,0.277-1.131,0.277
		c-0.533,0-0.949-0.139-1.252-0.417c-0.301-0.278-0.453-0.664-0.453-1.156c0-0.322,0.086-0.611,0.256-0.866s0.406-0.444,0.711-0.567
		c0.082-0.035,0.457-0.17,1.125-0.404s1.271-0.472,1.811-0.712v-1.371c0-0.715-0.102-1.214-0.307-1.499s-0.555-0.426-1.047-0.426
		c-0.34,0-0.604,0.088-0.791,0.264s-0.281,0.422-0.281,0.738c0,0.076,0,0.132,0,0.167s0.004,0.07,0.01,0.105l-1.328,0.545v-0.079
		c0-0.586,0.299-1.125,0.896-1.617s1.26-0.738,1.986-0.738c0.281,0,0.551,0.044,0.809,0.132s0.486,0.214,0.686,0.378
		c0.264,0.217,0.451,0.457,0.559,0.721c0.109,0.264,0.162,0.718,0.162,1.362v0.141v3.278c0,0.434,0.035,0.71,0.105,0.831
		s0.197,0.18,0.379,0.18c0.123,0,0.256-0.028,0.4-0.083c0.143-0.056,0.309-0.142,0.496-0.259l0.096,0.272
		c-0.404,0.381-0.75,0.659-1.041,0.835c-0.289,0.176-0.549,0.264-0.777,0.264c-0.287,0-0.52-0.1-0.695-0.299
		S847.139,19.831,847.104,19.474z M847.104,16.881c-0.51,0.275-1.086,0.545-1.73,0.809c-0.188,0.076-0.311,0.129-0.369,0.158
		c-0.17,0.088-0.303,0.218-0.4,0.391c-0.096,0.173-0.145,0.368-0.145,0.584c0,0.299,0.096,0.548,0.289,0.747
		s0.434,0.299,0.721,0.299c0.229,0,0.48-0.066,0.752-0.198c0.273-0.132,0.566-0.33,0.883-0.593V16.881z"/>
	<path d="M857.01,16.424c0-0.076,0.002-0.188,0.008-0.334s0.01-0.255,0.01-0.325c0-0.973-0.105-1.639-0.316-2
		s-0.574-0.541-1.09-0.541c-0.275,0-0.611,0.085-1.006,0.255c-0.396,0.17-0.896,0.445-1.5,0.826v4.553
		c0,0.439,0.08,0.735,0.238,0.888s0.457,0.234,0.896,0.246v0.378h-3.666v-0.378c0.434-0.012,0.732-0.094,0.893-0.246
		c0.162-0.152,0.242-0.448,0.242-0.888v-4.412c0-0.287-0.07-0.495-0.211-0.624s-0.449-0.255-0.924-0.378v-0.343l2.408-0.756h0.123
		v1.477c0.768-0.48,1.414-0.826,1.939-1.037c0.523-0.211,0.988-0.316,1.393-0.316c0.727,0,1.242,0.221,1.547,0.664
		s0.457,1.217,0.457,2.325c0,0.24-0.002,0.423-0.004,0.549c-0.004,0.126-0.012,0.25-0.023,0.374l-0.07,1.503
		c0,0.059-0.002,0.141-0.008,0.246c-0.018,0.369-0.027,0.624-0.027,0.765c0,0.445,0.098,0.738,0.291,0.879s0.557,0.214,1.09,0.22
		l0.008,0.378h-4.086v-0.378h0.088c0.457,0,0.773-0.144,0.949-0.431s0.281-0.902,0.316-1.846L857.01,16.424z"/>
	<path d="M863.004,17.399c0,0.902,0.063,1.479,0.189,1.731c0.125,0.252,0.35,0.378,0.672,0.378c0.188,0,0.396-0.07,0.629-0.211
		c0.23-0.141,0.473-0.349,0.725-0.624l0.264,0.343c-0.293,0.51-0.609,0.899-0.949,1.169s-0.689,0.404-1.047,0.404
		c-0.668,0-1.154-0.259-1.463-0.778c-0.307-0.519-0.461-1.346-0.461-2.483v-3.656h-1.064v-0.448
		c0.527-0.129,0.975-0.394,1.342-0.795c0.365-0.401,0.633-0.921,0.803-1.56h0.361v1.925h2.285v0.879h-2.285V17.399z"/>
</g>
</svg>
